<svg xmlns="http://www.w3.org/2000/svg" version="1.1" xmlns:xlink="http://www.w3.org/1999/xlink" xmlns:svgjs="http://svgjs.com/svgjs" width="1080" height="1080"><svg version="1.1" id="SvgjsSvg1000" xmlns="http://www.w3.org/2000/svg" xmlns:xlink="http://www.w3.org/1999/xlink" x="0px" y="0px" viewBox="0 0 1080 1080" style="enable-background:new 0 0 1080 1080;" xml:space="preserve">
<style type="text/css">
	.st0{display:none;}
	.st1{fill:#FFFFFF;}
</style>
<g class="st0">
	<path class="st1" d="M880.5,997.2c-227,0-454,0-680.9,0c0-304.8,0-609.6,0-914.3c227,0,454,0,680.9,0
		C880.5,387.6,880.5,692.4,880.5,997.2z M384.3,790.5c13.3,12.8,23.6,29.7,40.8,37.7c7.3,5.4,28.1,10.7,25.5-4.2
		c-7.1-9.3-8.6-21-11.4-32.1c-7.8-36.6-0.1-74,1.8-110.8c4.6-12.9,21.9-18.6,31-28.8c17.6-14.3,35.2-28.5,52.7-43
		c12.8-9.7,113.7-102.3,119.5-83.2c5.9,24.6,9.3,29.3-8,50.1c-13.2,16-27.3,35-35.9,53.6c-14.3,16.1-25.6,37.3-32.4,58.3
		c-15.6,34.9,20.4,67.1,53.6,51c4.5-8-41.1,1.6-42.2-22.7c3.2-51.4,43.5-94.8,72-135.4c7.9-4.8,4.7,28.9,6.6,34.3
		c2.7,33.2,0.7,67.1,8.1,99.7c2.5,6.8,13.7,7.9,18.5,3.3c4.6-3.5,4.5-9,2.4-14.5c-4.5-11.4-1.4-23.1-3.4-34.7
		c-2-31.8-6.3-63.1-6.9-95.1c0.7-9.2-4.4-20,0.6-28.3c7.3-6.5,15.2-26.6,23.8-27.3c9.5,10.7,32.2,19.7,38.9,1.8
		c9.5-28,3-62.4,13.1-88.6c6.1-0.8,7.6-5.9,9-11.1c3.5-13.6,17.3-19.1,26.7-28.1c14.5-12.8,30.2-24.1,45.5-35.7
		c8.2-8.6,19.8-14.5,27.4-22.7c6.4-10.5-1.7-19.9-13.2-16.7c-11.5-0.1-19.5,27-35.1,20.7c-23-4.8,0.4,34.3-43.9,32.5
		c-10.1-0.8-15.5,42.1-24.1,33.7c-3.8-8.5-14-14.1-22.3-8c-9.6,8.5,17.8,21.3,4.4,28.5c-7.9,2.7-8.9,13.4-17.8,15
		c-5.3,0.6-14.3,17.6-17.4,7.8c-14.3-94.6-18.2-190.2-30.1-285.1c-3.3-13.7-2.2-30.9-11.8-41.7c-4.6-3.4-16.3-3.5-15.3,4.5
		c1.8,5.8,0.2,11.7,2.2,17.3c1.2,2.1,1.3,5.9-0.4,8c-0.3,1.6,1.9,3.4,2,5c1,23.2,5.1,46.9,5.1,69.6c3.6,12.3-2.1,26.8,1.7,39.9
		c1.8,9-0.9,18.9,1,27.9c-1.8,4.1,1.6,8.3,0.5,12.7c0,7.9,1.2,16,0.2,23.8c-2.5,6,3.9,11.9,0.2,17.8c1.2,6.7,2.4,13,0.4,19.8
		c-1.9,7.6,6,16.2,1.4,23.3c-2,10.6,1.9,22.6,0.4,33.8c-0.1,7,11.6,70.6-1.6,63.6c-3.8-4.9-5.2-13.6-12.6-13.7
		c-5.9-1.2-14.3-1.8-18.5,3.2c-3.3,8.5-2.8,19.1-13.2,23c-22.5,3.9-20.1,16.8-37.3,21.9c-15.5,1.6-19.1,19.3-31.7,25.9
		c-4.3,3.8-9.6,3.5-14.9,3.7c-15.9,0-24.3,38.1-30.5,30.3c-3.1-8.7-9.4-9.2-17-6.5c-8.9,0.8-7.5,22.5-22.9,19
		c-10.9-2.8-15.9-0.2-18.4,10.5c-3.9,2.1-10.5,3.9-9.6,9.4c4.5,15.6,8.1,32.6,4.7,48.5c-1,7.5-10.5,9.4-14.8,15.5
		c-9.3,6.2,1.7,15.2,8.4,14.9c2-0.6,5.4-2.1,4.9,1.5c0.7,20.4-4.9,40.2-4.3,60.9c-1.6,19.6,5.6,38.5,6.2,57.8
		c-19.2-11.7-31.8-34.4-48.5-50c-8.5-20-8.5-43.1-14.4-64.1C359.6,654.2,344,609,343.7,564c27.9-73.8,58.8-147,89.4-219.2
		c12-40.3,96.9-196.1,46.3-218.9c-74-32.3-217.5,212.6-256.9,267.7c-2.9,5.4-11,15.2-1.5,17.9c13,5.2,14-15.8,21.1-22.6
		c11.3-19.3,23.5-38,36.1-56.5c38-55.9,76.4-112.1,124.1-160.3c59.1-55.2,94.1-58.6,71.5,33.6c-0.8,7.9-5.5,6.1-4.6,16.7
		c-1.2,5.5-7.3,8.5-6.5,14.5c0.8,3.1-2.9,4.8-1.6,7.7c1,4.8-2.5,8.1-3.8,12.2c-1.9,1.5-3.9,2.3-3.9,5.2c-4.9,8.3-4.5,18.7-9.1,27.5
		c-5.2,5.4-5.3,13-7.3,19.8c-6.3,7.7-5.8,9.2-8.4,18.2c-5.3,4.3-2.4,12-7.7,15.3c-1.6,3.7-4.8,7.6-4,11.9c0.2,0.6-0.2,1.9-0.7,2.2
		c-4.2,2.5-0.7,8.3-4.7,10.5c-3.4,2.9-1.4,9.6-5.1,12.2c-4,2.2-1.4,8.4-4.9,11.7c-3.2,3.5-1.9,9.9-6.3,12.4
		c-0.6,0.3-1.3,1.9-1.1,2.6c0.5,5.1-3.8,14.1-7.5,17.5c-1.7,5.1-0.2,11.8-4.1,16c-6.4,4.4-6,12.7-8.9,19.1
		c-5.3,13-12.4,25.8-15.3,39.8c-8.9,4.1-2.8,9.5-7.1,15.4c-5.6,6.5-2.9,16.4-9.6,22c-1.1,2.4-0.7,5.3-3.2,7.1
		c-8.9-48.7-16.3-98.2-20.6-147.7c-4.6-28.4,1.1-58.9-5.8-86.4c-5.5-0.8-6.6,2-5.3,7c1,4.9-1,9.5-3.2,13.6c-0.3,4.7-0.4,9.3-0.5,14
		c-0.1,72.6,13.2,144.1,25.2,215.5c3,10.5-5.4,20.2-7.7,30.2c-0.9,10.6-7.3,20.3-10.4,30.5c-4.6,4.3-3.8,10.4-5.3,15.6
		c-3.7,5-4.3,11.6-7.7,16.9c-3.5,6.9-3,15.4-7.8,21.4c-2,10.4-8.5,19.3-9.5,29.9c-0.5,5.4-5.2,9-8.1,13.2c-2.7,4.5,5.6,5.6,8.2,7.7
		c5.5,0.4,10.5-2.3,14.6-5.8c21-1.7,46.4,29.4,63,42.2c10.1,6.8,10.3,19.5,13.2,30.2c1.4,11.5,6.2,21.9,6.5,33.7
		c8.1,47.1,22.8,93.4,27.6,140.8c1,5.1,6.6,3.5,10.1,2c10-4.5-6.7-45.7-6.7-56.6C399.7,871.2,388,830.4,384.3,790.5z"></path>
	<path class="st1" d="M355.2,719c7.8,23.9,10.6,34.2-13.4,12.4c-13.4-11.5-29-21.3-44.6-29c-8.3-0.1,9-32.8,9.4-39.5
		c9.4-22.2,15.8-46.2,26-67.9C341.9,635.1,349.8,679.3,355.2,719z"></path>
	<path class="st1" d="M635.2,499c-0.7,6-7.8,4.6-9.5,10.3c-1.6,2.7-3.8,5.3-7.3,5.8c-6.2,1.6-9.4,8.4-14.5,12c-2.1,4-6.8,4.3-9,7.8
		c-4.2,5.5-12.5,5.1-16.2,11.5c-16.4,11.7-33.8,22.2-49.1,35.6c-3.1,6.2-10.9,6.6-15.4,11.5c-6.9,7.3-18,10.6-24.4,18.7
		c-2.4,4.6-5.9,6.4-10.3,8.3c-6.7,4.2-11.2-8.7-14.3-13.2c-0.1-5,7.3-7,10.7-9.7c9.3-0.4,19.9,7.3,28-2c8.6-7.8,9.8-20.2,17.1-28.7
		c12.2-6.5,29-6.4,37.9-19.1c4.4-4.2,7.3-12.8,14.1-13.1c11-1.5,19.2-11.3,28-17.4c7.7-5.4,17.2-7.3,24.5-13.2
		C628.2,501.8,632.3,492.7,635.2,499z"></path>
	<path class="st1" d="M732.2,446.1c-4.1,12,1.1,96.3-21.7,60c-2-2.3-1.2-5.3-0.2-7.8c5.4-12-12.7-10.9-11.9-21.5
		c-5.1-11.3,1.8-13.2,9.7-19.6C713.7,454.6,734.8,428.7,732.2,446.1z"></path>
	<path class="st1" d="M663,332.8c4.3,26.8,5.2,54.5,10.2,81.3c-0.3,15.2,13,48.5-0.7,56.7c-8.1,4-4.3-9-5.5-13.3
		C665.8,416.4,659.8,372.6,663,332.8z"></path>
	<path class="st1" d="M443.6,629.7c2.8-30,17.7-9.2,15.6,7.5C450.8,649,443.7,641.6,443.6,629.7z"></path>
	<path class="st1" d="M671.8,513.5c0-3.4-2.1-8,1.9-9.9c4.7-1.5,10-7.4,15-4.6c3.3,5.9-8.1,17.5-12.3,21.4c-4.3,5.6-4.3-3.9-5.2-6.8
		C671.3,513.6,671.6,513.5,671.8,513.5z"></path>
	<path class="st1" d="M683.1,482.6c-0.2,4.5-7.8,5.6-11.4,6.4C671.6,486.1,682.8,474.6,683.1,482.6z"></path>
	<path class="st1" d="M661.8,331.6c0.1-1,0.1-2,0.2-3.1c2-0.1,0.8,1.9,0.9,3.1C662.6,331.7,662.2,331.7,661.8,331.6z"></path>
</g>
<path d="M384.3,790.5c4,43.6,17.6,87.6,25.9,131.1c0.9,10.3,13.8,41.4,4.7,45.9c-3.5,1.5-9.1,3.3-10.1-2c-1.8-15.3-3.4-30.8-7.2-46
	c-12.9-50.1-19.2-101.8-33-151.4c-16.2-14.5-48.7-51.2-70.1-49.4c-6.4,6.1-15.1,7.7-22.2,1.8c-1.4-0.9-1.7-2.2-0.6-3.6
	c2.9-4.2,7.6-7.8,8.1-13.2c1-10.6,7.4-19.6,9.5-29.9c4.8-5.9,4.3-14.5,7.8-21.4c3.4-5.4,4-12,7.7-16.9c1.5-5.3,0.7-11.4,5.3-15.6
	c3.1-10.2,9.6-19.8,10.4-30.5c2.3-10,10.7-19.7,7.7-30.2c-12-71.4-25.3-143-25.2-215.5c0-4.7,0.2-9.3,0.5-14c2.2-4,4.2-8.6,3.2-13.6
	c-1.3-4.1,0-8.5,5.3-7c6.9,27.5,1.2,58,5.8,86.4c4.4,49.5,11.7,98.9,20.6,147.7c2.5-1.9,2.1-4.7,3.2-7.1c6.7-5.7,3.9-15.5,9.6-22
	c4.3-5.9-1.8-11.2,7.1-15.3c3-14,10-26.8,15.3-39.8c3-6.3,2.5-14.6,8.9-19.1c3.9-4.2,2.3-10.9,4-16c3.6-3.2,8-12.5,7.5-17.5
	c-0.2-0.7,0.5-2.3,1.1-2.6c4.4-2.6,3.1-8.9,6.3-12.4c3.5-3.3,0.9-9.5,4.9-11.7c3.6-2.5,1.7-9.3,5.1-12.2c4-2.3,0.5-8,4.7-10.5
	c0.5-0.4,0.9-1.6,0.7-2.2c-0.8-4.4,2.4-8.2,4-11.9c5.3-3.3,2.4-11,7.7-15.3c2.5-8.9,2.1-10.6,8.4-18.2c2.1-6.8,2.2-14.4,7.3-19.8
	c4.6-8.8,4.2-19.1,9.1-27.5c-0.1-2.8,2-3.8,3.9-5.2c1.3-4.1,4.8-7.4,3.8-12.2c-1.3-2.8,2.4-4.6,1.6-7.7c-0.8-6,5.3-8.9,6.5-14.5
	c-1-10.4,3.9-9,4.6-16.7c22.4-91.3-11.6-89.4-71.5-33.6c-47.6,48.2-86.1,104.4-124.1,160.3c-12.5,18.5-24.8,37.2-36.1,56.5
	c-7.2,6.8-7.9,27.8-21.1,22.6c-9.5-2.7-1.5-12.5,1.5-17.9c39.2-54.9,182.9-300.1,256.9-267.7c50.7,22.9-34.3,178.7-46.3,218.9
	C402.5,417,371.6,490.1,343.7,564c0.3,45,15.9,90.2,20.5,135.4c5.8,21,5.9,44,14.4,64.1c16.7,15.6,29.3,38.2,48.5,50
	c-0.6-19.3-7.8-38.2-6.2-57.8c-0.6-20.7,5-40.4,4.3-60.9c0.6-3.7-3-2-4.9-1.5c-6.9,0.4-17.5-8.9-8.5-14.9c4.2-6,13.9-8,14.8-15.5
	c3.3-15.9-0.3-33-4.7-48.5c-0.8-5.6,5.7-7.3,9.6-9.4c2.6-10.7,7.2-13.3,18.4-10.5c15.2,3.6,14.2-18.2,22.9-19
	c7.7-2.8,13.8-2.2,17,6.5c5.7,8.3,15.2-30.7,30.5-30.3c5.4-0.2,10.6,0.1,14.9-3.7c12.7-6.6,16.3-24.3,31.7-25.9
	c17.2-5.1,14.9-18.1,37.3-21.9c10.4-3.9,9.9-14.4,13.2-23c4.1-5,12.5-4.4,18.5-3.2c7.4,0.1,8.9,8.9,12.6,13.7
	c13.3,6.8,1.5-56.1,1.6-63.6c1.5-11.2-2.5-23.2-0.4-33.8c4.6-7.1-3.4-15.7-1.4-23.3c2-6.7,0.7-13.2-0.4-19.8
	c3.7-5.9-2.7-11.8-0.2-17.8c1-7.8-0.3-15.9-0.2-23.8c1.1-4.4-2.3-8.6-0.5-12.7c-1.9-9,0.8-18.8-0.9-27.9
	c-3.8-13.1,1.8-27.6-1.7-39.9c0-22.7-4.2-46.4-5.1-69.6c-0.1-1.7-2.3-3.4-2-5c1.7-2.5,1.6-5.5,0.4-8c-0.4-1.1-1.3-2.4-1.1-3.4
	c2.4-6.8-6-18.2,3.8-20.4c13.1-2.4,16,10.2,18.2,20.4c16.6,102.2,17.9,206,34.1,308.3c3.2,9.8,11.9-7.1,17.4-7.8
	c8.8-1.7,9.9-12.4,17.8-15.1c13.4-7.2-14-19.9-4.4-28.5c8.1-6,18.5-0.6,22.2,8c8.9,8.1,13.7-34.2,24.1-33.7
	c44.5,1.7,20.6-37.1,43.9-32.5c15.4,6.4,23.7-20.8,35.1-20.7c10.9-2.9,20.1,5.7,13.2,16.7c-7.6,8.2-19.2,14.2-27.4,22.7
	c-15.3,11.6-31,22.9-45.5,35.7c-9.4,9-23.3,14.6-26.7,28.1c-1.6,5.3-2.8,10.2-9,11.1c-10.1,26.2-3.6,60.6-13.1,88.6
	c-6.7,17.8-29.3,8.8-38.9-1.8c-8.5,0.6-16.6,20.9-23.9,27.3c-5,8.3,0,19.1-0.6,28.3c0.6,32,4.9,63.3,6.9,95.1
	c1.9,11.6-1.1,23.3,3.4,34.7c2.1,5.6,2.1,11-2.4,14.5c-4.8,4.8-16.1,3.4-18.5-3.3c-7.4-32.6-5.5-66.5-8.1-99.7
	c-1.8-5,1.2-39.2-6.6-34.3c-28.5,40.6-68.8,84-72,135.4c1.4,24.7,46.5,14.4,42.2,22.7c-33.2,15.9-69.2-15.9-53.6-51
	c6.8-21,18.1-42.2,32.4-58.3c8.6-18.6,22.8-37.6,35.9-53.6c17.2-20.5,14-25.8,8-50.1c-6.1-18.8-106,72.9-119.5,83.2
	c-17.5,14.5-35.1,28.6-52.6,43c-9.2,10.3-26.4,15.9-31,28.8c-1.9,36.8-9.7,74.2-1.8,110.8c2.8,11.1,4.2,22.9,11.4,32.1
	c2.6,14.8-18.2,9.5-25.5,4.2C407.9,820.1,397.6,803.3,384.3,790.5z M355.2,719c-5.4-39.7-13.3-83.9-22.6-123.9
	c-12.7,29.4-23.1,60.5-33.8,91c-0.3,4.4-8.7,15.5-1.7,16.4c15.6,7.7,31.2,17.4,44.6,29C365.6,753,363.2,743.3,355.2,719z M635.2,499
	c-1.4-4.5-5.4-0.9-6.9,1.8c-8.8,10.8-24.9,11.7-34.3,22.3c-6.7,4.1-12.6,11.1-20.8,11.5c-6.7,0.3-9.7,8.9-14.1,13.1
	c-9,12.7-25.8,12.6-37.9,19.1c-7.3,8.5-8.5,20.9-17.1,28.7c-8.1,9.3-18.7,1.6-28,2c-9.1,4.9-14.4,8.2-6.1,17.8
	c3.2,2.7,5.1,8.9,9.7,5.2c4.4-1.9,7.9-3.6,10.3-8.3c6.4-8,17.5-11.3,24.4-18.7c4.5-4.9,12.3-5.3,15.4-11.5
	c15.2-13.4,32.7-23.9,49.1-35.6c3.8-6.4,12.1-6,16.2-11.5c2.2-3.5,6.9-3.9,9-7.8c5.1-3.6,8.3-10.4,14.5-12c3.5-0.5,5.8-3.1,7.3-5.8
	C627.3,503.6,634.5,505,635.2,499z M732.2,446.1c2.6-17.5-18.5,8.5-24.1,11c-7.9,6.4-14.8,8.3-9.7,19.6
	c-0.8,10.6,17.3,9.5,11.9,21.5c-1,2.6-1.8,5.6,0.2,7.8C733.3,542.5,728.1,458.2,732.2,446.1z M663,332.8c-3.2,39.8,2.9,83.6,4,124.6
	c1.2,4.5-2.6,17.3,5.5,13.3c13.6-7.9,0.4-41.7,0.7-56.7C668.2,387.3,667.2,359.7,663,332.8z M443.6,629.7
	c0.1,11.8,7.3,19.2,15.6,7.5C461.3,620.5,446.3,599.8,443.6,629.7z M671.8,513.5c-0.2,0-0.4,0.1-0.6,0.1c0.9,2.9,0.9,12.3,5.2,6.8
	c4.1-3.9,15.6-15.5,12.3-21.4c-4.9-2.7-10.3,3.1-15,4.6C669.7,505.4,671.8,510.1,671.8,513.5z M683.1,482.6
	c-0.3-8-11.5,3.4-11.4,6.4C675.4,488.2,683,487.2,683.1,482.6z M661.8,331.6c0.4,0,0.8,0,1.1,0.1c-0.1-1.2,1.1-3.3-0.9-3.1
	C662,329.6,661.9,330.6,661.8,331.6z"></path>
</svg><style>@media (prefers-color-scheme: light) { :root { filter: none; } }
@media (prefers-color-scheme: dark) { :root { filter: invert(100%); } }
</style></svg>