<svg xmlns="http://www.w3.org/2000/svg" xmlns:xlink="http://www.w3.org/1999/xlink" version="1.1" id="layer" x="0px" y="0px" style="enable-background:new 0 0 652 652;" xml:space="preserve" viewBox="21.4 253 600.1 138.2">
<style type="text/css">
	.st0{fill:#D20020;}
</style>
<g>
	<path class="st0" d="M550.1,391.2h-28.3c-55,0-71.6-11.6-71.6-54.7v-28.1c0-42.9,16.6-54.8,71.6-54.8h28.3c47.8,0,67,9.5,71,42.9   h-23.8c-3.6-18.3-14.7-22.2-46.8-22.2h-26.6c-38.9,0-47.7,6.8-47.7,34.9v26.2c0,28,8.8,35.1,47.7,35.1h24   c39.1,0,48.3-7.7,48.3-33.3h-70.4v-20.1h95.7v18.2C621.4,377.5,604,391.2,550.1,391.2"/>
	<path class="st0" d="M130.6,253.6c32.8,0,47.1,16.5,47.1,38.5c0,11.4-5.6,20.7-16,26.7c15,5.7,22.5,17,22.5,31   c0,22.1-14.4,39.8-47.1,39.8l-115.7,0v-136L130.6,253.6z M47,330.4v39.1h88.7c13.6,0,22.4-8.1,22.4-19.7c0-11.6-8.9-19.5-22.5-19.5   L47,330.4z M47,310.4h82.4c13.6,0,22.4-6.7,22.4-18.3c0-11.6-8.8-18.4-22.4-18.4l-82.4,0V310.4z"/>
	<path class="st0" d="M364.5,253c33.2,0,59.6,20.7,59.6,51.3v85.3h-25.3v-84.5c0-19.1-14.1-31.4-34.3-31.4   c-20.5,0-34.5,12.4-34.6,31.4l-0.3,84.5h-24.7l-0.3-84.5c-0.1-19.1-14.2-31.4-34.6-31.4c-20.2,0-34.3,12.4-34.3,31.4v84.5h-25.3   v-85.3c0-30.5,26.4-51.3,59.6-51.3c20,0,37,8.5,47.3,19.5C327.6,261.5,344.5,253,364.5,253"/>
</g>
</svg>