<svg xmlns="http://www.w3.org/2000/svg" id="Layer_2" data-name="Layer 2" viewBox="0 -0.01 1028.16 738.29">
  <defs>
    <style>
      .cls-1, .cls-2 {
        stroke-width: 0px;
      }

      .cls-2 {
        fill: #fff;
      }
    </style>
  </defs>
  <g id="Layer_1-2" data-name="Layer 1">
    <g>
      <path class="cls-1" d="m366.54,666.32c.25,1.44.21,2.3.55,2.97,1.9,3.74,1.6,7.09-.9,10.59-1.91,2.67-2.83,6.08-6.16,7.6-.97,3.68-4.55,4.6-7.16,6.4-2.58,1.78-5.71,2.78-8.6,4.12-.34.16-.79.22-1.03.47-3.15,3.46-7.79,4.35-11.63,6.61-5.17,3.05-10.81,5.28-16.15,8.05-6.23,3.24-12.55,6.37-18.47,10.12-4.83,3.06-10.07,5.05-15.25,7.23-3.99,1.68-7.93,3.86-12.12,4.64-8.14,1.51-16.38,3.38-24.76,2.03-4.54-.73-9.03-1.86-13.46-3.12-2.51-.72-3.33-2.89-3.35-5.48-.02-2.29-.15-4.62-.65-6.84-.34-1.53-1.39-2.9-1.77-3.66-3.29-.27-5.77-.6-8.25-.62-1.5,0-3.29.07-4.46.85-2.18,1.44-4.64,1.27-6.95,1.84-1.02.25-2.25-.04-3.31-.36-9.42-2.87-17.22-7.98-23.78-15.54-8.33-9.59-17.02-18.94-26.26-27.64-9.02-8.49-19.71-14.74-31.38-19.14-1.56-.59-3.16-1.11-4.79-1.43-2.05-.41-2.7.11-2.64,2.04.12,4.19.4,8.37.49,12.56.1,4.82.04,9.64.11,14.45.03,2.13.16,4.27.31,6.4.33,4.58.61,9.16,1.09,13.72.36,3.43,1.01,6.82,1.53,10.23.39,2.54-.13,4.8-2.19,6.63.34.69.65,1.34,1.01,2.06-1.81,1.56-3.24,3.35-6.2,3.1-1.99-.17-3.49,1.45-2.8,4.39-1.52-.7-2.36-1.09-3.23-1.49-1.33.39-.32,3.39-2.8,2.59-.14-.04-.61.49-.7.82-.7,2.57-2.98,2.74-4.98,3.56-6.59,2.7-12.78.26-19.06-1.2-3.05-3.46-7.87-5.43-9.1-10.39-.55-2.22-.56-4.58-.74-6.88-.34-4.22-.83-8.45-.87-12.67-.04-3.94-2.58-5.51-5.59-6.76-1.15-.48-2.48-.52-3.97-.81.12-.62.05-1.55.35-1.7,3.74-1.8,4.66-5.78,6.83-8.77.51-.7.38-1.96.31-2.95-1.19-15.84-2.3-31.68-3.73-47.5-.41-4.56-1.66-9.06-2.73-13.54-1.55-6.47-3.01-12.98-4.99-19.33-3.77-12.07-4.35-24.67-6.49-37-.42-2.4-.75-4.86-.66-7.28.13-3.43-1.01-6.26-3.33-8.81.3-.51.73-.91.78-1.35.56-4.97,3.93-8.27,6.79-11.95,1.39-1.79,2.12-4.08,3.2-6.12,3.51-6.64,7.52-12.96,14.14-16.89,4.05-2.4,8.59-3.94,12.74-6.19,5.05-2.74,10.48-4.11,16.05-5.14,8.49-1.57,17.05-2.21,25.66-1.52,7.29.58,14.58,1.24,21.83,2.18,3.74.48,7.39,1.65,11.09,2.51.37.09.72.27,1.09.3,9.15.72,16.95,4.78,24.03,10.22,2.47,1.9,4.65,4.51,6.17,7.23,2.73,4.9,5.4,9.97,7.1,15.28,1.57,4.92,1.86,10.26,2.68,15.41.08.49.02,1.04-.12,1.52-.89,3.04-1.64,6.14-2.77,9.09-2.14,5.57-4.07,11.26-7.27,16.35-1.83,2.92-3.85,5.73-5.92,8.49-2.05,2.74-4.08,5.44-5.66,8.52-.8,1.57-1.88,3.13-3.68,4.24-1.53.95-2.19,3.25-3.37,4.86-.95,1.3-1.8,2.69-3.96,2.47-.84-.09-1.81,1.17-2.83,1.89.48,1.14.86,2.04,1.18,2.81-.98,1.5-1.88,2.87-2.78,4.23,1.35,1.98,2.73,3,5.12,1.38.35,3.43,2.66,4.51,4.94,5.71,18.2,9.6,34.42,21.76,48.1,37.22,3.32,3.75,6.9,7.27,10.38,10.87.42.44.97.76,2.14,1.66.08-3.94.19-7.19.2-10.45,0-2.04-.06-4.09-.24-6.13-.36-4.2-.81-8.4-1.25-12.6-.21-2.04-.72-4.07-.68-6.1.12-6.54-1.64-13-.67-19.56.06-.38-.09-.83.07-1.14,1.41-2.74,1.41-5.5.29-8.32,1.93-2.67-.39-6.72,3.16-9.07-2.33-2.68-.26-6.54-2.64-9.3-.18-.21.27-.92.34-1.41.16-1,.73-2.32.31-2.97-1.82-2.78-.36-5.23.24-7.87.62-2.71.72-5.53,1.09-8.3.08-.58.2-1.35.59-1.66,2.78-2.16,2.69-5.29,2.76-8.27.07-3.07-.21-6.14-.43-9.21-.04-.51-.54-.99-.86-1.47-.2-.29-.7-.7-.64-.8.63-1.02.97-1.93.24-3.14-.49-.83-.56-1.91-.86-3-.87-.04-1.73-.09-2.79-.14.27-.74.32-1.48.71-1.86,2.1-2.02,3.28-4,1.36-6.95-.56-.86-.82-2.91.8-3.73,2.19-1.11,2.58-3.57,4.95-5.35h-4.75c3.28-3.76,6.42-6.54,10.13-8.84,9.12-5.64,19.29-8.89,29.09-12.94,8.98-3.72,18.13-7.06,27.3-10.27,10.05-3.52,20.45-5.75,30.92-7.63,1.89-.34,3.75-1.03,5.65-1.1,1.56-.06,3.16.53,4.73.9.34.08.69.66.92.59,3.05-.8,5.11,1.45,7.63,2.31,1.85.63,2.66,1.89,3.54,3.32.31.5.65,1.02,1.1,1.38,2.81,2.18,2.72,4.34-.28,6.45-.41.29-.74.67-1.1,1.02-.09.09-.13.22-.38.63.36.55.81,1.24,1.32,2.01-.94,1.55-1.9,3.14-3.09,5.1-.81-1.23-1.68-1.96-1.67-2.68.03-1.58-1.36-1.27-1.96-1.93-.88-.95-1.55.03-2.14-.05-2.35-.32-4.66,1.99-7.06-.09-.97-.84-1.95-.09-1.98,1.25-.05,2.18.04,4.37-.02,6.55-.02.52-.37,1.07-.68,1.53-.18.26-.87.46-.85.55,1.21,4.25-4.51,6.29-3.41,10.58.08.33-1.4,1.29-2.28,1.59-6.06,2.09-12.15,4.12-18.25,6.09-6.95,2.25-13.92,4.39-20.87,6.64-1.07.35-2.05.98-3.01,1.45,0,3.78,0,7.35,0,10.92,0,1.01.14,2.07-.1,3.03-.36,1.45-2.23,2.73-.33,4.35-.68,1.78.66,3.09.99,4.63.62,2.84.66,5.82.89,8.74.46,5.74.91,11.49,1.32,17.23.1,1.41.85,2.13,2.15,2.26,1.27.13,2.59.28,3.83.07,3.79-.63,7.55-1.44,11.33-2.16,8.16-1.56,16.33-3.11,24.5-4.65,1.51-.29,3.02-.55,4.53-.81,3.8-.66,7.24-.06,10.32,2.5,2.16,1.8,4.53,3.35,6.87,4.92,1.39.93,1.94,1.97,1.98,3.75.06,2.45.78,4.88,1.3,7.78-2.1,1.37-1.67,3.87-1.04,5.91-1.53,1.6-3.02,2.68-3.88,4.14-2.35,4-5.8,6.26-10.15,7.52-6.99,2.02-13.89,4.39-20.93,6.23-6.55,1.71-13.26,2.8-19.85,4.37-3.57.85-7.34,1.18-10.68,3.4,0,4.79.07,9.53-.03,14.27-.04,1.9-.43,3.8-.67,5.7-.29,2.28-.75,4.55-.86,6.84-.18,3.7-.68,7.25-1.79,10.84-.67,2.16-.03,4.81.38,7.18.11.62,1.57,1.47,2.36,1.42,1.49-.1,3.05-.56,4.4-1.23,9.63-4.8,19.19-9.74,28.84-14.5,2.75-1.35,5.68-2.38,8.6-3.31,7.81-2.5,15.61-5.19,23.87-5.68,4.37-.26,8.86-.71,13.61,1.94-.14-1.96-.1-3.32-.38-4.61-.4-1.88-.04-3.39,1.77-4.16,1.94-.82,2.56-2.55,2.9-4.24,1.6-7.84,4.81-15.09,7.86-22.4,4.67-11.18,11.74-20.98,18.45-30.94,2.11-3.13,5.1-5.76,8.01-8.25,6.33-5.42,12.59-10.99,19.4-15.74,4.55-3.17,9.87-5.47,15.13-7.35,5.21-1.87,10.85-1.57,16.38-1.2,2.03.14,4.11-.16,6.12.09,3.78.48,7.52,1.19,11.27,1.88.42.08.8.61,1.12.99,1.96,2.35,3.95,4.68,5.82,7.11.51.67.78,1.62.91,2.48.58,3.92,1.27,7.84,1.55,11.79.32,4.43-2.92,7.74-7.3,8.02-1.12.07-2.29.36-3.31.83-4.63,2.11-9.5,3.88-13.76,6.6-6.79,4.32-13.27,9.14-19.68,14.01-12.15,9.22-19.86,21.97-27.2,34.97-1.82,3.23-2.41,6.67-1.57,10.4,1.24,5.49,2.06,11.08,3.44,16.54,1.71,6.78,8.39,12.04,15.4,12.49,3.33.21,6.68.4,10.01.35,8.64-.14,17.11-1.89,25.35-4.18,6.65-1.85,12.73-5.45,18.36-9.52,3.76-2.72,7.76-3.7,12.26-2.73,6.21,1.33,10.81,6.65,10.63,12.81-.13,4.55,1.17,8.17,4.91,10.88,1.12.81,2.09,1.82,2.99,2.61-3.59,7.13-9.2,11.8-16.03,15.15-10.96,5.38-22.14,10.27-34.14,12.8-10.51,2.22-21.16,2.34-31.78.49-1.25-.22-2.45-.74-3.67-1.14-5.84-1.92-11.67-3.86-17.51-5.76-5.84-1.89-10.99-4.92-15.41-9.18-2.5-2.4-4.93-4.87-7.33-7.36-.79-.82-1.65-1.72-2.05-2.74-1.08-2.74-1.83-5.64-4.85-7.04-.27-.12-.36-.65-.5-1.01-2.72-7.3-6.76-14.08-8.43-21.81-.41-1.88-.99-3.93-3.53-5.54Zm-258.66-127.33c-5.26-.57-10.84.44-16.33,1.7-6.37,1.47-12.54,3.49-17.61,8.04-2.16,1.94-4.78,3.43-7.35,4.84-2.53,1.39-2.93,1.98-1.49,4.32,1.4,2.27,3.18,4.34,4.38,6.71,1.55,3.06,3.58,5.31,6.59,7.17,4.42,2.72,7.25,6.46,5.87,12.45-.78,3.37-1.06,7.23,1.17,10.44,1.9,2.73,3.92,5.4,6.13,7.88,1.62,1.82,3.69,2.6,6.25,1.48,1.62-.71,3.46-.92,5.19-1.39,7.57-2.03,14.79-4.57,20.27-10.72,4.93-5.54,10.7-10.38,14.3-17.01,1.39-2.56,2.5-5.27,3.68-7.94,1.04-2.34,2.32-4.63,2.96-7.08,2.4-9.24-3.36-15.53-11.11-18.25-7.11-2.5-14.86-2.6-22.9-2.64Z"/>
      <path class="cls-1" d="m401.74,366.02c.93-.91,2.39-1.68,2.7-2.77,1.28-4.41,5-6.05,8.5-7.79,4.68-2.33,9.79-3.69,14.27-6.56,2-1.28,4.48-1.8,6.68-2.8,1.54-.7,2.01-2.01,2.04-3.75.14-6.93.57-13.85.68-20.78.09-5.74,2.77-10.64,4.92-15.67.69-1.6,2.66-2.7,4.14-3.9,1.46-1.19,3.04-2.22,4.84-3.52,2.75,1.36,5.38,4.74,9.33,2.19.91.74,1.69,1.38,2.67,2.19.41-.54.88-.95,1.09-1.46.74-1.84,1.99-1.64,2.95-.5,1.97,2.33,4.02,4.62,3.84,8.12-.08,1.58.44,3.33,1.14,4.79,2.39,4.95,3.46,10.16,3.63,15.62.03,1.12.32,2.23.46,3.15,3.6,1.59,5.54-.48,7.46-2.91,3.38,4.17,7.09,1.66,10.64.78.61-.15,1.2-1.58,1.28-2.47.23-2.68.08-5.4.3-8.08.35-4.19.28-8.45,2.18-12.4.4-.83.05-1.99.19-2.97.65-4.43,2.42-8.23,6.63-10.29,3.81-1.86,7.76-3.45,11.08-4.9,2.17,1.11,3.62,1.8,5.02,2.6.63.36,1.39.8,1.67,1.4.56,1.2,1.28,1.72,2.62,1.7,2.23-.03,3.39,1.44,4.17,3.32,2.69,6.54,5.21,13.13,6.4,20.14.19,1.13.45,2.26.71,3.5.76.25,1.49.7,2.19.67,4.45-.21,8.89-.52,13.34-.83,2.43-.17,4.88-.27,7.28-.65,3.67-.57,7.35-1.22,10.97-2.06,7.56-1.74,15.17-2.27,22.91-1.73,5.1.36,10.23.28,15.35.44,4.12.13,8.19.88,11.71,2.95,3.72,2.19,7.15,4.88,10.58,7.53,1.85,1.42,2.26,3.63,2.15,5.89-.05,1.13-.17,2.26-.3,3.97,1.64-.3,2.99-.41,4.26-.8,4.16-1.28,8.25-2.8,12.44-3.98,10.24-2.89,20.5-5.74,30.8-8.38,4.28-1.1,8.67-.29,12.88.76,1.45.36,2.86,1.56,3.88,2.73,1.07,1.22,2.18,1.47,3.66,1.61,1.75.17,3.46.78,5.18,1.27,1.34.38,2.67.79,3.96,1.3,1.48.59,3.43.06,4.39,1.92.92,1.78.06,3.2-.7,4.71-.21.42-.24,1.01-.16,1.49.44,2.36-.55,3.4-2.83,4.12-2.7.85-3.12,2.65-1.84,5.42,1.18,2.56.16,4.88-2.6,5.67-6.88,1.97-13.8,3.8-20.66,5.83-3.68,1.09-7.27,2.49-10.92,3.69-7.68,2.52-15.34,5.1-23.07,7.47-11.78,3.61-23.64,6.94-35.4,10.62-4.26,1.33-8.34,3.25-12.45,5.02-6,2.59-11.96,5.27-17.92,7.95-.91.41-1.71,1.06-2.66,1.67.97,2.98,2.42,5.33,5.25,6.4,1.23.47,2.7.61,4.02.47,4.59-.48,8.94-.31,12.36,3.36,1.37,1.47,2.8,1.38,4.54.7,4.88-1.94,9.81-3.77,14.72-5.62,5.32-2,10.81-3.27,16.5-3.3,1.69,0,3.41.77,5.08,1.3,2.53.81,5.05,1.69,7.55,2.58.9.32,1.76.75,3.03,1.29-3.33,3.67-2.08,6.79.33,9.59-2.66,2.39-5.23,4.69-7.8,6.99-.38.34-1.01.61-1.11,1.02-.71,2.93-3.26,4.05-5.28,5.78-3.66,3.14-7.82,5.22-12.22,7.08-8.37,3.55-16.62,7.37-24.92,11.08-.59.26-1.18.53-1.72.87-7.33,4.64-7.28,4.47-5.85,12.2,1,5.42,2.03,10.83,3.16,16.22.3,1.44,1.02,2.79,1.72,4.63,2.06-1.17,3.76-1.99,5.31-3.04,5.4-3.64,10.7-7.42,16.14-11,2.77-1.83,5.82-3.22,8.6-5.03,5.8-3.76,11.62-7.44,18-10.21,3.81-1.66,7.44-2.55,11.47-.83,2.69,1.14,5.59,1.78,8.26,2.97,2.05.91,4.02,2.04,5.16,4.31.48.94,1.92,1.84,3,1.94,2.74.26,3.9,1.69,4.21,4.21.08.62.23,1.34.61,1.8,1.26,1.52.64,2.94-.2,4.24-.98,1.52-1.56,2.71-.03,4.42,1.32,1.48.64,4.42-1.28,6.15-1.48,1.33-2.73,2.66-3.17,4.64-.08.35-.32.75-.61.97-4.3,3.28-6.19,8.76-10.61,11.84-3.44,2.4-7.13,4.45-10.82,6.45-4.5,2.44-9.08,4.73-13.68,6.97-6.86,3.33-13.84,6.11-21.72,5.9-2.04-.06-4.33.69-6.13,1.72-3.06,1.75-6.29,1.69-9.32,1.01-3.7-.83-7.23-2.45-10.77-3.89-2.37-.96-4.65-2.15-6.93-3.31-4.22-2.14-8.45-4.28-12.61-6.53-2.8-1.52-4.61-3.96-6.06-6.78-1.04-2.04-2.32-3.98-3.64-5.86-2.84-4.06-4.59-8.5-5.16-13.44-.23-2.01-.91-3.97-1.18-5.97-1.78-13.15-1.7-26.34-1.1-39.56.31-6.9.56-13.8.76-20.7.04-1.27-.18-2.57-.42-3.82-.46-2.46-1.02-4.9-1.53-7.3-3.72-.82-7.68-1.68-11.71-2.57,1.01-7.31,3.49-13.08,9.52-17.33,7.02-4.95,13.48-10.67,20.34-15.87,3.56-2.7,7.44-4.99,11.45-7.65-1.69-1.18-3.32-.61-4.87-.52-6.66.36-13.31.73-19.97,1.11-4.99.28-9.99.49-14.97.92-1.35.12-2.63.96-3.97,1.38-1.58.5-2.26,1.51-2.23,3.15.06,3.08-.04,6.17.09,9.25.31,7.29.77,14.58,1.07,21.87.2,4.86.07,9.73.37,14.57.88,14.08,1.92,28.16,2.88,42.24.4,5.89.8,11.77,1.17,17.66.48,7.68.72,15.38,1.47,23.04.74,7.51,2.01,14.96,3.01,22.44.52,3.94.9,7.82-1.88,11.32-.74.94-.51,2.65-.69,3.82-1,1.02-1.86,2.06-2.87,2.88-1.15.94-2.37,1.86-3.71,2.47-1.27.58-2.57.75-3.3,2.29-.66,1.41-2.07.88-3.38.62-1.28-.25-2.66-.04-3.99.07-1.31.1-2.37,2.56-4.01.44-.04-.06-1.49.97-2.24,1.47-.74-.54-1.51-1.17-2.34-1.69-1.54-.97-2.94-3.04-3.93-4.62-.56-.89-.43-2.51-2.32-2.64-.86-.06-1.85-1.32-2.42-2.25-1.54-2.53-2.88-5.19-4.3-7.79-.18-.33-.35-.68-.59-.96-3.51-4.07-4.63-9.03-5.29-14.17-.18-1.4-.33-2.84-.8-4.15-.75-2.12,0-3.64,2.01-5.4-1.11.06-1.7.09-2.6.13-.23-1.75-.59-3.59-.68-5.44-.37-7.35-.6-14.71-1-22.06-.42-7.69-1-15.37-1.49-23.05-.28-4.42-1.12-8.85.15-13.25.14-.47-.06-1.15.21-1.46,2.31-2.65,2.31-5.76,2.5-9.06.18-3.05-.96-5.26-2.52-7.53.33-.81.66-1.61,1.01-2.46-3.15-2.7-3.69-6.1-3.56-10.01.19-5.44-.26-10.91-.33-16.36-.05-4.86.07-9.73.07-14.6,0-.74-.24-1.48-.41-2.51-1.13.1-2.14.05-3.07.3-3.2.85-6.48,1.53-9.51,2.8-2.85,1.2-2.85,1.72-2.24,4.85,1.5,7.64.91,15.3.41,22.99-.46,7.01-.91,14.06-.73,21.08.21,7.94,1.14,15.86,1.76,23.79.42,5.36,1.03,10.71,1.18,16.08.11,3.96,1.12,7.51,3.06,10.91.88,1.55,1.51,3.24,2.24,4.88,2.45,5.51.22,10.5-1.63,15.57-.55,1.49-.9,3.2-.79,4.77.67,9.96,1.39,19.91,2.31,29.85.43,4.69-1.27,8.73-3.06,12.81-.56,1.27-1.25,2.5-1.98,3.69-.4.65-.89,1.41-1.52,1.7-2.52,1.16-5.03,2.51-7.7,3.11-3.72.84-7.09-.93-9.9-3.07-4.55-3.47-7.96-8.04-10.91-12.95-.53-.88-1.41-1.74-2.33-2.18-5.11-2.47-6.16-7.49-8.01-12.1-3.17-7.9-3.22-16.21-3.84-24.5-.63-8.44-2.24-16.81-2.68-25.25-.53-10.25-.25-20.54-.41-30.81-.12-8.21-.45-16.41-.55-24.62-.1-8.6-.03-17.19-.03-25.79,0-.63,0-1.26,0-2.24-3.61-.98-7.21-.64-10.66.01-3.72.71-6.94.33-10.3-1.55-3.1-1.74-6.6-2.74-9.91-4.11-3.84-1.58-4.97-4.09-3.86-8.16.31-1.15.39-2.38.44-3.59.04-1.07-.11-2.14-.18-3.21.29.01.58.02.88.04Z"/>
      <path class="cls-1" d="m886.75,500.97c1.69-1.67,1.56-3.78,1.59-5.83,0-.62-.4-1.42-.15-1.85,1.67-2.77,1.04-5.39.05-8.22-.49-1.42-.01-3.19.11-4.8.02-.31.35-.65.63-.87,1.14-.88,2.32-1.72,3.73-2.76-.78-.9-1.33-1.53-1.87-2.16,1.49-6.07,4.45-11.5,7.25-16.99.54-1.06,1.05-2.05-.2-3.06-.43-.34-.56-1.05-.9-1.72,2.77-.8,3.7-2.58,4.56-5.13.85-2.5,3.11-4.73,5.23-6.51,1.98-1.66,4.49-2.82,6.94-3.75,3.2-1.21,6.5-2.42,9.86-2.85,6.22-.8,12.52-1.5,18.78-1.41,9.44.13,18.85,1.18,28.07,3.38,2.35.56,4.62,1.5,6.89,2.36,3.47,1.33,6.97,2.59,10.33,4.17,2.66,1.25,5.24,2.75,6.6,5.66.29.62,1.05,1.04,1.64,1.49,3.13,2.44,6.27,4.87,9.48,7.34-.29,1.17-.53,2.12-.76,3.02,2.5,2.23,4.92,4.41,7.35,6.57.18.16.47.27.7.25,4.8-.31,6.22,3.28,7.92,7-1.67.52-3.56.68-4.9,1.63-1.38.97-2.22,2.7-3.37,4.2-3.19-.79-6.01-.02-8.51,2.08-.48.4-1.02.88-1.6.99-5.52,1.04-11.04,2.2-16.61,2.9-2.49.31-5.1-.34-7.65-.61-2.29-.24-4.5-.48-6.84.26-2.34.75-4.89.42-7.05-.94-2.72-1.72-5.31-1.47-8.01-.06-2.84,1.49-5.77,2.82-8.59,4.36-3.3,1.81-5.38,4.84-6.81,8.14-1.22,2.79-.23,5.74,1.71,7.9,2.64,2.94,5.45,5.82,8.62,8.14,6.1,4.46,12.63,8.33,18.73,12.77,8.26,6.01,16.52,12.05,23.08,20.07,3.32,4.05,7.15,7.68,10.63,11.6,1.61,1.82,3.05,3.81,4.37,5.86,7.89,12.29,14.05,25.34,17.06,39.73,1,4.77,2.15,9.52,2.85,14.33,1.31,8.99-.11,17.51-4.44,25.64-2.64,4.96-4.59,10.25-8.14,14.75-4.9,6.22-10.34,12.01-16.57,16.76-4.39,3.34-8.98,6.78-14.41,8.56-.59.19-1.15.57-1.63.98-6.1,5.26-13.68,7.31-21.06,9.87-4.32,1.5-8.74,2.58-13,4.41-6.78,2.91-13.65,5.81-21,7.2-1.26.24-2.53,1.15-3.48,2.08-1.16,1.14-2.2,1.77-3.97,1.81-2.82.06-5.2,1.33-7.62,3.06-3.78,2.71-7.83,5.06-13.09,4.46-3.82-.44-7.61-.55-11.23-2.03-5.38-2.2-10.96-1.55-16.26-.09-6.57,1.81-13.12,1.5-19.77,1.47-7.6-.04-15.08-.66-22.5-2.26-.99-.21-2.06-.04-3.07-.2-1.2-.2-2.4-.47-3.53-.88-1.06-.39-2.04-1.02-3.06-1.52-.57-.28-1.53-.36-1.7-.78-1.28-3.11-5.28-2.58-6.4-5.41-3.08,1.37-5.73,2.56-8.37,3.73-.21-.39-3.52-2.86-4.23-3.21.72-1.77.66-3.46-.5-5.25-1.07-1.66-1.66-3.57-1.86-5.71-.25-2.76-2.09-5.06-4.55-6.29-1.7-.85-2.27-2-2.29-3.57-.05-2.68-1.48-4.3-3.78-5.22-1.43-.57-2.03-1.36-2.51-2.92-1.71-5.59-1.63-11.39-2.34-17.08-.57-4.53-1.74-8.91-2.85-13.31-2.79-11.04-5.79-22-6.49-33.5-.47-7.65-2.05-15.24-3.1-22.85-.24-1.76-.39-3.53-.6-5.39,1.57-.45,2.99-.86,4.7-1.35-.51-1.07-.78-1.91-1.25-2.6-1.36-1.99-.81-3.87.5-5.49.89-1.1,1.12-1.74.59-3.25-.42-1.2.39-3.96,1.28-4.28,2.9-1.04,1.87-3.79,2.94-5.54,1.12-1.83,1.58-3.68,4.16-4.25,3.69-.8,7.26-2.15,10.89-3.24.47-.14,1.04-.28,1.47-.13,3.38,1.18,6.88,1.39,10.75.77.27,2.16.6,3.89.67,5.62.33,8.12,2.09,16.01,3.82,23.9.52,2.4.33,4.94,2.68,6.87,1.49,1.22,1.09,3.54.62,5.48-.36,1.46-.58,2.96-.92,4.77,2.26.76,4.24,1.44,6.27,2.13-1.5,2.88-2.95,5.49-4.23,8.19-.39.83-.56,1.95-.38,2.85,1.27,6.42,2.57,12.84,4.04,19.22.76,3.31,6.1,5.53,8.97,3.74,5.76-3.6,11.72-6.97,17.03-11.16,6.4-5.05,12.2-10.86,18.26-16.34.28-.26.58-.5.83-.79,4.78-5.47,4.83-5.66,2.78-12.7-1.03-3.57-1.88-7.21-3.19-10.68-1.99-5.27-3.88-10.66-8.28-14.31.3-1.64.54-2.96.86-4.68-4.3.33-4.22-3.47-5.89-5.59-1.31-1.66-1.45-4.06-4.11-4.89-1.45-.45-2.63-1.29-3.65-.44-3.89-3.33-7.44-6.37-11.54-9.88-1.67-.1-4.12-.24-6.85-.4-.15-.62-.41-1.69-.64-2.65-1.76-.67-4.1.95-5.01-1.74-.08-.22-1.07-.41-1.41-.22-2.54,1.44-4.88.11-7.3-.37-1.1-.22-2.24-.23-3.7-.37.29,3.32-2.5,4.76-3.56,7.25-1.25,2.94-5.3,1.98-7.57,4.32-2.16-2.49-4.13-4.91-6.26-7.17-.94-1-2.15-1.77-3.33-2.49-2.41-1.46-2.73-2.46-2.26-5.27.43-2.61.25-5.33.78-7.9.34-1.64-.66-3.68,1.22-4.94-1.36-2.03.35-3.67.77-5.45.22-.94-.04-1.28-.68-1.88-.42-.4-.64-1.67-.33-2.06.81-1.01,2.37-1.57,2.86-2.66.48-1.06.24-2.2,1.57-3.1,2.42-1.63,2.29-1.83,2.56-5.41,1.22-.32,2.54-.7,3.89-1,7.4-1.63,14.8-1.29,22.16.17,4.38.87,8.82,1.71,13.01,3.22,6.77,2.43,13.03,6.05,18.76,10.38,1.57,1.19,2.01,3.86,3.12,6.15,1-.18,2.54-.91,3.79-.57,1.37.37,2.47,1.72,3.52,2.51.62,1.39-1.57,2.9.76,3.99.51-.56,1.06-1.16,1.87-2.05.43,1.3.76,2.32,1.09,3.34.2.14.39.38.59.39,1.37.06,3.46-.96,2.81,1.99-.03.12.3.48.41.46,3.25-.59,3.9,2.67,5.78,4.04,2.03,1.47,3.66,3.58,5.2,5.61.6.8.48,2.15.73,3.48,1.78-.41,2.61.74,3.61,2.19,5.12,7.43,9.14,15.39,12.39,23.8,1.75,4.52,4.13,8.8,5.94,13.31,1.42,3.52,2.62,7.17,3.46,10.87.32,1.4-.43,3.18-1.04,4.64-1.06,2.58-.23,5.54,2.21,7.1.38.24.71.65.91,1.06.27.56.18,1.45.59,1.77,3.53,2.77,2.98,6.47,2.51,10.19-.63,4.93-1.24,9.87-1.87,14.8-.03.25-.18.51-.15.75.89,8.2-5.27,13.47-8.32,20.03-.73,1.58-1.71,3.05-2.66,4.52-.89,1.38-1.89,2.68-2.9,4.11,2.25,2.15,4.37,3.03,7.38,1.86,10.02-3.91,20.3-7.23,30.15-11.52,5.68-2.47,11.26-5.5,15.76-10.11,4.1-4.2,9.08-7.65,12.67-12.22,4.94-6.29,8.5-13.67,7.95-21.92-.36-5.31-1.92-10.59-3.46-15.74-2.94-9.87-9.26-17.61-16.63-24.5-5.8-5.42-11.7-10.76-17.9-15.71-4.38-3.5-9.38-6.2-13.99-9.42-2.28-1.59-4.28-3.58-6.43-5.36-.92-.76-1.37-1.93-2.98-2.09-.89-.09-2-1.67-2.32-2.78-.4-1.41-.1-3.02-.1-4.68-3.04.48-4.55-1.95-6.28-3.56-1.3-1.21-3.77-2-3.19-4.66.14-.65.1-1.36.06-2.03-.05-.79-.14-1.58-.3-2.35-.07-.32-.58-.62-.54-.88.65-4.61-2.28-8.67-2.03-13.17.13-2.33-2.44-2.04-3.08-3.89Z"/>
      <path class="cls-1" d="m818.71,342.9c5.09,2.18,5.09,6,5.21,10,.16,5.51.75,11,1.21,16.5.16,1.93.47,3.81-1.03,5.44-.41.44-.87,1.27-.72,1.72.71,2.09-.66,3.3-1.92,4.69.96,1.42.97,2.84.81,4.48-.11,1.19-.48,3.12,1.44,4.03.36.17.01,1.58.21,2.37,2.04,7.98.7,15.92.02,23.91-.51,6.1-.21,12.28-.18,18.42.08,12.1-2.29,23.6-8.69,34-1.5,2.44-3.52,4.74-6.35,5.97-.59.25-1.4.31-1.74.74-2.56,3.26-6.49,1.61-9.67,2.66-1.11.37-2.82-1.13-4.27-1.76-.48-.21-1.01-.57-1.47-.51-3.58.44-6.73-.69-9.93-2.47-1.17.25-2.76,1.09-3.93.69-1-.34-1.51-2.1-2.38-3.46-.37.25-.9.76-1.54,1.03-.67.28-2,.57-2.07.42-1.13-2.5-4.3-1.03-5.66-2.98-.18-.27-.81-.58-.91-.49-1.76,1.47-2.48-.25-3.19-1.16-2.44-3.14-4.69-6.41-7.09-9.58-2.22-2.94-4.54-5.82-6.81-8.73-1.81-2.32-3.69-4.6-5.42-6.99-1.45-2.01-3.09-3.31-5.78-2.96-1.62.21-3.29.04-4.81.04-.28.36-.56.56-.56.77-.27,6.65-1.13,13.24-.45,19.96.62,6.09.5,12.27.51,18.41,0,4.47-.13,8.96-.53,13.41-.26,2.9-.68,5.93-1.81,8.57-1.31,3.06-4.1,5.08-7.05,6.68-1.11.6-2.29,1.09-3.4,1.61-.68,1.88.32,2.96,1.53,4.04,4.79,4.24,9.62,8.44,14.31,12.8,7.15,6.63,11.86,14.84,14.08,24.25.72,3.08-.34,6.58-.62,9.89-.03.35-.29.98-.47.98-3.08.16-3.22,4.14-6.1,4.41-.39,2.56-.09,5.17-2.25,6.97-.23.19-.32.76-.24,1.08.5,1.81.87,3.54-1.33,4.54.12,4.64-3.79,7.35-5.4,11.25.44.66,1.17,1.31,1.27,2.04.08.61-.46,1.44-.96,1.96-4.1,4.33-8.09,8.77-13.1,12.15-2.82,1.9-5.39,4.16-8.1,6.23-.7.54-1.42,1.19-2.23,1.42-2.77.79-4.51,2.74-6.44,5.34.98.64,1.83,1.31,2.77,1.78,3.91,1.93,7.94,3.65,11.75,5.75,2.56,1.41,5.09,3.07,7.2,5.09,4.25,4.07,8.15,8.52,12.3,12.7,2.35,2.36,4.98,4.42,7.38,6.73,6.29,6.03,12.58,11.98,17.35,19.47,3.49,5.47,6.17,11.13,8.17,17.24,1.07,3.27,3.1,6.31,3.67,9.64,1.01,5.92,1.18,11.99-.68,17.86-1.26,3.97-2.95,4.92-7.11,4.83-2.04-.04-4.12.59-6.11.33-5.38-.7-10.81-1.13-15.48-4.63-3.66-2.74-7.85-4.77-11.61-7.39-1.49-1.04-2.73-2.69-3.58-4.33-1.36-2.62-2.52-5.39-3.37-8.22-.83-2.78-1.42-5.69-1.64-8.59-.27-3.51-1.77-6.37-3.73-9.11-5.29-7.42-10.42-14.95-15.9-22.22-3.31-4.39-8.13-6.32-13.63-6.85-.21.83-.46,1.32-.45,1.8.1,4.61.44,9.23.32,13.84-.18,6.66-.71,13.31-1.07,19.96-.08,1.53-.27,3.09-.05,4.58.34,2.41,1.04,4.64-.87,6.92-.96,1.15-.53,3.16-.9,4.77-.65,2.82-3.05,3.64-4.57,4.11-2.11.66-3.97,1.73-5.57,2.88-1.6,1.14-3.36.97-4.92,1.73-.53.25-1.5-.08-2.12-.42-2.31-1.27-4.51-2.75-6.85-3.96-2.37-1.23-3.95-3.03-5.3-5.32-3.75-6.37-4.49-13.6-6.19-20.55-2.59-10.58-4.96-21.21-7.52-31.8-2.68-11.09-4.96-22.25-6-33.64-.18-2.01-.86-3.98-1.18-5.99-.37-2.31-1.23-4.66,1.34-6.53.7-.51.67-2.09.83-3.2.07-.46-.38-.97-.35-1.45.2-3.43-1.51-5.45-4.79-6.29-1.3-9.7-.14-19.12,1.19-28.43,1.4-.38,3-.43,4.01-1.23.75-.6.73-2.17,1.2-3.83-1.75.66-2.89,1.08-4.63,1.74.36-2.02.64-3.59.92-5.19,2.77-.48,4.95-1.46,5.59-4.67-.89-.73-1.85-1.52-3-2.47,3.02-7.22,6.29-14.39,12.13-20.04.62-.6,1-1.43,1.53-2.13,1.26-1.7,2.67-3.11,5.07-2.59.49.11,1.23.36,1.48.13,2.76-2.45,6.98-2.21,9.48-5.14.23-.27.64-.39,1.08-.65-.45-1.06-.89-2.1-1.45-3.42,11.14-6.36,23.02-7.9,35.67-6.35-5.23-7.37-5.84-15.64-6.56-23.89-.7-8.05-1.67-16.07-2.26-24.13-.72-9.88-.35-19.75.67-29.61.3-2.93.11-5.91.37-8.84.17-1.97-.35-4.18,1.46-5.78.24-.22.37-.67.38-1.03.1-1.98-.27-4.08.28-5.91,2.43-8.04,4.31-16.34,9.39-23.32.61-.84.78-2.3,2.47-1.77.25.08.9-.51,1.07-.91,1.96-4.74,6.57-5.65,10.64-6.98,2.45-.8,4.92-1.54,7.33-2.48.86-.34,1.82-1.04,2.74.12.19.24,1.11.26,1.35.02,1.99-1.91,3.8-.74,5.57.27,6,3.39,10.92,7.75,14.49,13.87,3.15,5.4,7.63,10.02,10.91,15.36,3.04,4.96,6.83,9.25,10.38,13.78.59.75,1.4,1.32,2.84,1.72-.18-1.84-.4-3.67-.54-5.51-.34-4.58-.32-9.22-1.05-13.74-1.12-6.87-1.64-13.87-4.8-20.35-2.81-5.76-4.66-11.94-5.52-18.34-.15-1.08-.88-2.58,1.12-3.12.16-.04.12-2.1-.37-2.87-.49-.76-1.68-1.06-3.09-1.87-.57-4.09-1.06-8.56-1.84-12.99-.48-2.71-1.65-5.31-2.05-8.02-1.24-8.35-2.41-16.72-3.29-25.11-.52-4.93-2.08-7.52-6.79-9.02-1.67-.53-3.07-2.23-5.28-.98-.7.4-1.61-1.02-.92-1.86,1.02-1.24,2.12-2.52,4.13-2.32,1.51.15,3.1.13,4.58-.18,2.85-.59,4.96-2.16,6.62-4.74,2.09-3.26,3.92-6.77,6.92-9.38.67-.58,1.33-1.53,2.08-1.61,2.6-.29,4.62-1.95,6.9-2.7,4.08-1.33,6.08-4.48,8.47-7.44.78-.97,1.48-2.1,2.47-2.78,2.2-1.51,4.51-2.89,6.88-4.12,4.13-2.14,7.86-1.39,11.2,1.8,1.48,1.41,3.18,2.58,4.67,3.97,3.07,2.89,5.07,6.38,5.59,10.62.52,4.24,1.82,8.15,4.43,11.63.79,1.05,1.03,2.57,1.37,3.91,1.87,7.54,1.44,15.27,1.85,22.93.18,3.3.38,6.61.46,9.91.02.83-.29,1.73-.64,2.51-1.64,3.6-1.48,4.15.51,8.02,1.32,2.57,1.58,5.47.13,8.11-.58,1.06-1.88,1.73-3.52,3.16Zm-104.6,220.6c-.17-.34-.37-.64-.47-.96-.11-.36-.02-.81-.2-1.11-.71-1.17-1.95-1.3-2.85-.37-2.45,2.56-5.01,3.91-8.78,4.44,1.35-2.17,2.51-4.13,3.76-6.02,1.62-2.45,3.41-4.79,4.93-7.3,1.57-2.59,1.38-4.27-1.03-6.01-2.04-1.47-4.39-3.12-6.76-3.39-4.11-.48-8.47-.49-11.22,3.83-2.21,3.45-4.72,6.71-6.98,10.14-1.81,2.74-2.52,5.88-2.69,9.12-.24,4.48-.45,8.96-.57,13.45-.05,1.86.18,3.74.32,6.25,2.68-2.2,4.81-3.94,6.53-5.35,2.11,1.27,3.82,2.56,5.72,3.37,1.76.75,3.73.98,5.93,1.52,1.43-1.83,3.15-2.93,6.13-1.52,2.26,1.07,3.78-.48,4.48-3.21.29-1.14.86-2.27,1.57-3.19.24-.31,1.33.04,1.56.06.88-1.59,1.34-3.11,2.34-4.05,1.6-1.5,3.57-2.62,5.35-3.88-.47-2.03-2.49-3.51-.85-5.48.04-.05-.62-.63-.9-1.01-.48-.67-.9-1.38-1.6-2.45-1.28,1.08-2.37,2.01-3.73,3.15Z"/>
      <path class="cls-1" d="m223.53,403.24c-2.01,1.82-3.62,3.27-4.86,4.4.7,3.22,1.28,5.77,1.81,8.33.42,2.04.13,4.29,1.8,5.97.12.12.02.64-.15.83-.83.98-.47,1.59.2,2.63,1.16,1.8,1.58,3.71-.76,5.43-.8.59-1.78,2.21,0,3.88,1.44,1.34-.12,6.52-2.67,7.67-4.26,1.92-6.22,6.6-10.79,8.11-1.1.36-1.71,2.72-2.18,4.27-.25.84.11,1.99.5,2.87,1.13,2.55,2.59,4.95,3.22,7.71.02.09-.11.21-.09.19h-6.2c-.2,1.89-.13,3.53-.61,5.01-.4,1.25-1.31,2.49-3.03,2.23-2.52-.37-4.12,1.55-5.01,3.08-1.08,1.86-3.24,3.81-1.82,6.6.26.51-.31,1.44-.53,2.31-.63.16-1.24.47-1.84.45-3.53-.09-6.96-1.13-10.56-.82-1.15.1-2.52-1.12-3.62-1.94-1.64-1.23-3.08-2.71-4.7-3.97-8.2-6.35-14.98-13.97-20.01-23.02-4.35-7.83-8.66-15.67-11.41-24.3-1.58-4.95-4.29-9.52-6.19-14.38-2.23-5.72-3.89-11.66-6.23-17.33-3.08-7.48-4.59-15.4-7.1-23.03-1.51-4.61-2.91-9.31-4.9-13.71-1.98-4.36-4.65-8.41-7.77-12.53-.44,2.65-1.1,5.29-1.25,7.95-.24,4.32-.44,8.68-.13,12.98.76,10.58,1.93,21.14,2.71,31.72.24,3.3-.05,6.66-.36,9.96-.48,5.05-1.07,10.09-1.83,15.11-.81,5.32-1.91,10.59-2.81,15.9-.36,2.13-.43,4.31-.8,6.43-.61,3.54-1.56,6.82-3.63,10.01-2.49,3.84-3.84,8.42-5.7,12.68-.2.45-.47.87-.64,1.19-2.81-.28-5.44-.6-8.07-.76-1.13-.07-2.45-.13-3.4.37-4.48,2.33-8.94.95-12.77-.92-2.6-1.27-5.96-2.17-7.56-5.21-.22-.42-.69-.78-1.13-1.01-3.6-1.84-5.85-4.9-7.55-8.42-3.62-7.49-6.91-15.09-9.46-23.05-3.53-11-6.52-22.11-9.23-33.33-2.57-10.67-3.66-21.46-4.05-32.37-.23-6.63.32-13.41-.88-19.85-1.51-8.11-.7-16.11-.8-24.16-.04-3.06.44-6.14.8-9.2.25-2.1-.29-3.57-2.56-3.93-6.13-.97-8.37-6.31-11.61-10.46-.59-.75-.44-2.18-.42-3.29.02-1.4.58-2.86.32-4.18-1.03-5.16,2.47-8.39,5.03-11.9,1.68-2.31,4.33-3.47,7.33-3.65,2.56-.15,5.11-.8,7.65-.73,4.85.15,8.71,2.68,12.17,5.86,3.62,3.33,4.88,7.8,5.42,12.42.21,1.8-.48,3.78-1.06,5.59-.75,2.34-.64,4.33.52,6.62,2.44,4.79,4.32,9.85,6.7,14.68,4.42,8.96,9.06,17.81,13.52,26.74,1.14,2.28,1.95,4.72,2.92,7.08.22.54.48,1.07,1.41,1.57.26-2.19.59-4.37.77-6.56.52-6.13.7-12.31,1.54-18.4.65-4.69,2.01-9.42,5.83-12.66,4.98-4.23,10.21-8.36,16.61-10.08,4.89-1.32,9.78.02,13.75,3.09,3.11,2.41,5.72,5.49,8.44,8.37,7.2,7.61,10.56,17.5,15.42,26.47,3.72,6.86,6.28,14.33,9.74,21.35,4.83,9.8,8.16,20.19,12.25,30.27.8,1.97,1.98,3.83,1.57,6.19-.12.7.47,1.95,1.1,2.29,1.9,1.05,1.88,2.72,2.23,4.5.35,1.78,1.43,3.42,2.1,5.15.83,2.14.95,4.5,3.46,5.86,1.27.69,1.89,2.58,2.87,4.03,1.95-1.15,1.41-2.96,1.38-4.26-.08-4.11-.39-8.15,2.13-11.8.45-.65.14-1.77.41-2.6.28-.86.83-1.62,1.47-2.8-1.16-1.04-2.55-2.28-4.34-3.87.7-.74,1.31-1.56,2.09-2.18,1.88-1.5,2.13-3.51,2.17-5.83.05-3.17-1.12-5.89-2.01-8.9,1.39-.3,3.28-.15,2.28-2.55-.38-.9-.72-2.11-.43-2.94,1.09-3.05.03-6.03.06-9.03.02-2.02.86-4.15.41-6.01-.59-2.44-.6-4.79-.41-7.2.09-1.25.43-2.5.44-3.75,0-1.6-.27-3.21-.31-4.81-.06-2.26-.01-4.52-.01-7.13-.98-.54-2.18-1.19-3.56-1.95-.68-7.02-1.38-14.16-2.07-21.3-.42-4.34-.9-8.68-1.21-13.04-.22-3.15.38-6.15,2.53-8.62.46-.53,1.13-.96,1.79-1.23,1.64-.68,3.32-1.24,4.99-1.84,2.01-.72,3.51-1.78,4.04-4.13.25-1.11,1.34-2.13,2.25-2.96,1.33-1.2,2.93-2.1,4.27-3.28,1.39-1.23,2.6-1.48,4.5-.88,2.08.65,4.58-.04,6.64.63,2.08.68,3.84,2.32,5.76,3.55,1.12-.96,1.91-1.59,2.64-2.28,4.13-3.87,8.77-4.34,13.83-2.15.59.25,1.2.52,1.83.58,4.67.51,6.76,4.33,9.29,7.44.75.92.95,2.7.69,3.95-.54,2.63-1.24,5.19-.64,7.9.37,1.67-.5,2.68-1.95,3.31-1.29.56-2.58,1.14-3.89,1.65-1.8.69-3.55,1.29-4.69,3.11-1.06,1.68-2.76,1.6-4.43.79-1.15-.55-2.27-1.2-3.47-1.6-1.82-.6-3.93-.65-5.47-1.64-1.37-.88-2.13-2.71-3.72-4.88.65,4.87-3.64,4.27-5.63,6.51,1.08.44,1.86.76,2.79,1.14.2,1.02.43,2.12.61,3.06.36.3.56.6.75.6,2.35-.07,3.51.99,3.66,3.39.19,2.92.55,5.83.9,8.74.74,6.22,1.37,12.46,2.31,18.65,1.06,6.99,2.64,13.92.83,21.01-.08.33-.03.74.09,1.07,1.36,3.87,1.58,5.73,1.21,9.57-.17,1.8.06,3.59-.19,5.45-.22,1.62,1.37,3.45,2,5.25.4,1.14.54,2.37.71,3.57.07.49-.33,1.2-.1,1.49,1.42,1.88.23,3.51-.21,5.3-.67,2.73-.24,3.21,2.47,3.95.44.12.86.33,1.51.58Z"/>
      <path class="cls-1" d="m512.15,226.13c-1.27-2.7-2.26-4.93-3.38-7.09-.23-.45-.98-.97-1.42-.91-1.46.2-2.1-.42-2.49-1.73-.47-1.59-1.82-2.36-3.28-1.97-1.53.41-2.14-.33-2.77-1.32-5.5-8.66-9.99-17.84-13.53-27.46-.74-2.01-.84-4.24-1.45-6.3-.6-2.04-1.47-4-2.24-6.07,1.31-.82,2.35-1.48,3.23-2.04-.39-2.72-1.01-5.23-1.06-7.76-.1-4.56-2.23-8.49-3.47-12.69-.14-.48-.71-.92-.68-1.36.24-3.23-.7-5.29-4.35-5.74-.79-.1-1.57-1.93-1.99-3.09-2.76-7.59-5.42-15.22-8.12-22.84-.4-1.13-.85-2.25-1.28-3.38-.29.05-.58.1-.86.14,0,1.83-.4,3.77.08,5.47,1.22,4.32.63,8.64.55,12.96-.17,8.96-.36,17.93-.6,26.89-.07,2.82-.28,5.63-.49,8.44-.34,4.57-1.03,9.15-1,13.72.02,3.41.53,6.94,1.54,10.19,2.33,7.48,2.77,15.11,2.8,22.83.01,3.2.2,6.4.42,9.59.35,4.99.78,9.97,1.23,14.95.13,1.4.21,2.89.75,4.14,1.16,2.69.08,4.73-1.53,6.67-2.79,3.37-6.41,5.49-10.55,6.74-2.41.73-4.65.23-7.96-1.49.88-.62,1.77-1.24,2.83-1.98-1.42-2.62-3.63-3.5-6.03-4.3-.87-.29-1.82-1.37-2.08-2.28-1.02-3.55-2.14-7.14-2.56-10.79-1-8.64-1.53-17.34-2.43-25.99-.76-7.25-1.74-14.48-2.68-21.7-.32-2.42-.83-4.81.23-7.36,1.1-.07,2.21-.15,3.83-.26-.44-1.48-.85-2.83-1.33-4.45,2.73-4.09,2.8-4.11,5.75-1.01.64-.45,1.81-.84,1.92-1.42.39-2.08.79-4.28.49-6.34-.38-2.62-1.44-5.13-2.21-7.7-.21-.14-.4-.34-.63-.41-7.62-2.03-8.47-3.01-8.88-11.32-.44-8.98-.78-17.96-1.02-26.94-.14-5.25-.39-10.55.14-15.75.87-8.54,2.28-17.03,3.57-25.52.5-3.27,2.2-5.6,6.08-5.77-.15-.97-.43-1.7-.32-2.37.18-1.07.54-2.95.97-2.99,3.91-.37,1.8-4.55,3.91-5.97.16-.11-.13-.9-.25-1.59,2.72-.68,5.14-1.59,3.67-5.07,1.82-4.81,4-9.42,9.1-11.55,3.36-1.4,8.7.38,11.11,3.53,2.48,3.24,4.87,6.5,6.84,10.16,3.45,6.41,7.56,12.46,11.3,18.72,3.42,5.71,6.71,11.41,8.35,18.05,1.41,5.7,3.81,11.16,5.9,16.68,4.32,11.38,8.86,22.68,13.03,34.12,1.74,4.78,2.71,9.79,2.79,15,.14,8.17.16,16.39,1.98,24.43.22.99.56,1.96.88,3.04,1.93-.86,1.69-2.66,1.8-3.99.32-4.08.3-8.18.44-12.28.16-4.71,1.87-8.86,4.63-12.62.15-.2.3-.57.46-.58,3.22-.16,4.17-3.06,5.99-4.9.44-.45.95-1.11,1.47-1.15,3.09-.25,4.34-2.76,5.88-4.52-.59-1.48-1.14-2.85-1.69-4.22-.2-.24-.39-.48-.59-.72,1.37-.92,2.75-1.85,4.61-3.1-1.28-.6-2-1.24-2.7-1.21-3.86.16-4.07.09-5.73-3.26-.11-.23-.28-.43-.59-.88-1.39.07-2.93.14-4.74.23-.33-1.28-.72-2.82-1.16-4.55-1.4.18-2.63.33-3.94.49-2.56-7.45.41-15.02-.66-22.36-2.26-1.21-4.65-2.18-6.7-3.63-6.17-4.37-6.93-14.51-.69-19.7,2.56-2.12,5.32-4,7.99-5.99,0-.84.09-1.61-.01-2.36-.82-6.21-1.74-12.4-2.5-18.61-.28-2.28-.08-4.61-.26-6.91-.41-5.1-.98-10.19-1.38-15.29-.32-4.08-.52-8.17-.73-12.25-.12-2.29,0-4.61-.28-6.88-.79-6.68,1.57-11.74,7.42-15.14.33-.19.6-.48.92-.7.31-.21.64-.38,1.14-.67.65.57,1.29,1.15,1.96,1.71,1.26,1.05,2.57,1.72,4.16.54.4-.3.93-.44,1.41-.59q3.44-1.08,5.82,2.09c.91-.82,1.8-1.62,2.91-2.61,1.54,1.06,3.3,1.91,5.41.94.53,1.39,1.03,2.55,1.42,3.74.94,2.84,2.81,4.87,5.55,5.9,3.55,1.33,4.84,3.37,4.91,7.45.09,5.7,1.59,11.38,2.47,17.07,1.07,6.97,2.22,13.92,3.14,20.91.79,5.97,1.3,11.99,1.97,17.98.83,7.47.48,14.85-1.11,22.21-.7,3.25-1.06,6.58-1.42,9.89-.7,6.38-1.28,12.77-1.94,19.15-.43,4.15-.89,8.29-1.34,12.45-2.7,1.36-3.06,1.96-2.39,4.88.56,2.44,1.37,4.81,1.93,7.25.22.96.23,2.03.05,3-1.05,5.79-2.12,11.59-3.31,17.35-1.56,7.54-3.1,15.08-4.95,22.55-1.32,5.34-2.84,10.69-4.86,15.8-1.18,3-3.43,5.6-5.37,8.26-1.19,1.64-2.77,2.99-4.05,4.57-3.27,4.04-7.85,5.32-12.65,5.53-4.95.21-9.91-.21-14.59-2.31-1.17-.53-2.7-.26-3.88-.35Z"/>
      <path class="cls-1" d="m722.79,54.84c-.66,1.5-1.07,2.42-1.61,3.63.64,1.03,1.27,2.29,2.15,3.36,1.38,1.68,2.85,3.29,4.41,4.8,1.26,1.22,2.59,2.75,4.61,1.11.19-.15.48-.27.71-.26,4.05.13,8.11.29,12.52.46.07,1.13.08,2.24.21,3.34.21,1.76.15,3.67.84,5.23.91,2.05.27,3.58-.45,5.41-1.45,3.67-3.04,7.37-3.73,11.22-.43,2.37-1.13,4.19-2.94,5.5-2.29,1.66-2.9,3.53-2.14,6.32,1.15,4.25.8,8.6.14,12.94-.89,5.8-1.8,11.62-2.25,17.46-.17,2.25.92,4.59,1.37,6.55-2,3.97-4,7.93-6.2,12.3-1.55.18-2.83,1.31-3.91,3.33-2.95,5.52-6,11.04-9.6,16.14-4.04,5.71-7.6,11.81-12.99,16.55-4.9,4.3-9.17,9.32-14.03,13.66-4.22,3.77-9.24,6.49-14.68,8.15-11.78,3.58-23.54,7.24-35.43,10.4-6.3,1.68-12.83,2.49-19.29,3.5-4.09.64-8.07,1.55-11.59,3.77-3.24,2.05-6.06.73-9.13-.79-.32.54-.67,1.12-.94,1.59-3.01-2.26-6.08-4.4-8.96-6.77-1.25-1.03-2.47-2.37-3.11-3.83-2.91-6.58-5.29-13.35-6.07-20.58-.16-1.51-.36-3.03-.58-4.83.84-.14,1.63-.28,2.43-.41,2.15-3.5,2.88-7.35,3.13-11.41.11-1.72,1.09-3.37,1.52-5.1.21-.84.04-1.78.04-3.04,1.46-1.04,2.86-2.46,3-4.93.06-1.08,1.4-2.1,2.26-3.28-.75-.63-1.6-1.36-2.52-2.14-1.28.98-2.49,1.91-3.77,2.9-.47-1.78-.96-3.65-1.43-5.48,1.55-1.74,3.26-3.66,5.06-5.68-.33-.56-.7-1.19-1.2-2.05,1.12-.92,2.23-1.83,3.67-3.01-.04-1.61-.7-2.85-3.21-2.29-.71.16-1.58-.38-2.31-.58.02-.55-.05-.84.06-.99,2.78-4.07,2.77-4.12-1.65-6.44-2.71-1.42-5.23-1.96-7.61-1.49-.05-.87-.16-1.71-.13-2.54.64-18.51,1.33-37.01,3.97-55.39,1.71-11.92,2.75-23.93,4.01-35.92.25-2.41.03-4.87.18-7.3.16-2.53.23-5.13.85-7.57.98-3.85,5.21-5.99,9.18-4.98.7.18,1.37.49,2.5.91.85-4.15-1.38-7.44-1.78-10.98-.41-3.58-.86-7.1-4.02-10.18,1.02-.63,1.74-1.32,2.59-1.55,4.88-1.3,9.75-2.82,14.73-3.55,1.85-.27,4.27,1.01,5.92,2.26,2.77,2.1,5.76,3.14,9.1,3.75,2.62.48,5.11,1.62,7.71,2.23,1.97.46,4.02.73,6.04.76,2.33.03,4.41.58,6.64,1.31,3.97,1.3,8.21,2.27,12.36,2.39,4.84.14,9.35,1.4,13.89,2.64,3.92,1.07,7.8,2.32,11.6,3.76,3.82,1.45,7.53,3.22,11.28,4.87.47.2.87.65,1.34.72,3.97.65,6.5,3.19,8.8,6.24,1.85,2.44,3.97,4.69,6.08,6.92,1.81,1.92,2.8,4.12,3.63,6.63.94,2.86,2.75,5.44,4.26,8.1.18.32.86.34,1.29.55.98.48,1.94,1,3.21,1.66Zm-94.43,2.18c-1.39-.07-2.28-.17-3.17-.15-2.14.03-5.37,2.07-5.69,3.89-.51,2.87-.91,5.79-1,8.7-.14,4.48.29,8.99,0,13.45-.65,9.96-1.6,19.91-2.41,29.86-.26,3.17-.38,6.35-.71,9.51-.24,2.28-1.21,4.6-.96,6.8.32,2.81-.43,5.31-.91,7.93-.34,1.86-.51,3.77-.53,5.67-.05,3.79.03,7.59.11,11.38.08,3.67.4,7.3.29,11-.21,7.48,1.02,14.97.13,22.5-.24,2.06.34,4.22.57,6.55,1.36-.38,2.38-.56,3.31-.94,11.29-4.56,22.58-9.14,33.85-13.73,6.41-2.61,11.82-6.67,16.34-11.84,5.8-6.62,11.5-13.33,16.01-21.09,1.99.87,3.76,1.93,5.67,2.41,1.92.48,3.99.4,5.68.54,1.4-1.28,2.38-2.92,3.66-3.21,4.95-1.1,5.41-6.81,9.42-8.77.23-.11.2-.92.17-1.4-.09-1.83.45-3.17,2.45-3.62.45-.1.8-.6,1.08-.82-.26-1.49-.48-2.72-.75-4.23-1.48,1.06-2.66.64-3.75-.48-1.02-1.05-2.12-2.03-3.09-2.95-1.76,1.35-3.18,2.43-4.79,3.67-.39-1.25-.65-2.07-.95-3.04-1.33,1.07-2.35,1.9-3.38,2.72-.19-1.12.1-1.9.39-2.68.78-2.12,1.77-4.19,2.3-6.37,1.84-7.6,3.33-15.29,5.33-22.84,1.39-5.24,2.3-10.47,2-15.88-.05-.85-.26-1.74-.6-2.52-1.67-3.89-3.57-7.69-5.09-11.63-3.86-10.03-10.78-16.98-20.64-21.1-.86-.36-1.78-.57-2.76-.88-.52,4.35-.22,8.6-3.8,11.55-.24.2-.13.76-.32,1.09-1.4,2.48-3.67,3.79-6.22,4.85-2.18.91-3.26-1.02-4.97-1.56-.8.45-1.65.92-2.57,1.44q-.58-3.5-4.56-4.03c-.79-2.66-1.57-5.17-2.26-7.72-.19-.7-.28-1.55-.06-2.21.83-2.49.98-5.26,3.49-7.04,1.1-.78,1.65-2.32,2.54-3.66-3.56-1.2-6.89-1.77-10.29-1.23-.16.45-.3.69-.32.93-.26,3.51-.65,6.94-4.04,9.1-.45.29-.57,1.08-.86,1.63-1.8,3.43-4.6,5.85-8.36,6.49-2.53.43-4.48.95-5,4Z"/>
      <path class="cls-1" d="m227.41,260.45c-2.66,2.36-4.71,3.86-6.32,5.73-.97,1.13-1.8,1.65-3.22,1.46-1.25-.16-2.61-.47-3.76-.14-.89.25-1.52,1.39-2.27,2.14-3.01-.59-5.68.48-7.34,3.01-.93-.87-1.86-1.74-2.81-2.63q-2.46.19-3.98,2.06c-2.56.03-3.7-1.86-4.87-3.71-2.39-3.77-2.36-8.04-2.6-12.27-.3-5.25-.7-10.48-1.03-15.73-.18-2.81-.27-5.63-.46-8.44-.27-3.87-1.78-6.87-5.84-7.99-1.84-.51-2.48-1.84-2.05-3.56.53-2.12-.06-3.78-1.56-5.22-1.33-1.28-1.48-2.62-.3-4.08.24-.3.58-.6.65-.94.99-5.07,2.88-9.65,6.46-13.52.64-.69.52-2.21.53-3.34.04-6.79.02-13.58.02-20.15-2.76-1.18-3.78-2.73-3.63-5.06.21-3.3-.74-6.13-3.58-8.6.85-.75,1.59-1.58,2.48-2.18,2.69-1.82,3.75-4.12,3.23-7.48-.6-3.92-.57-7.93-.96-11.89-1.11-11.51-1.42-23.03-1.1-34.61.31-11.03-.33-22.09-.4-33.14-.03-5.52.31-11.04.42-16.56.07-3.57-.1-7.16.04-10.73.07-1.76.4-3.55.93-5.23.63-2,1.69-3.47,4.26-3.71,1.97-.18,3.9-1.24,5.73-2.15,1.76-.87,3.15-.58,3.82,1.13,2.52,6.48,8.03,6.67,13.44,6.05,5.55-.63,14.58,4.74,15.8,9.42.87,3.34.95,7.23.14,10.58-.9,3.74-1.12,7.55-2.05,11.26-1.03,4.12-3.26,6.12-7.37,6.7-3.75.53-7.36.52-10.82-2.34-.57,1.43-1.25,2.32-1.23,3.2.06,2.55.2,5.12.66,7.62.7,3.78,1.67,7.5,2.58,11.24,3.17,13.08,5.33,26.34,7.47,39.61.28,1.73.78,3.43,1.2,5.27,18.79-3.14,36.99-7.22,55.42-12.15-.62-5.18-1.07-10.15-1.82-15.07-2.28-14.96-4.78-29.9-5.69-45.03-.27-4.45.09-8.97.51-13.43.53-5.75,1.23-11.5,2.19-17.19.99-5.87,4.23-10.56,8.8-14.92,2.05,2.59,3.71,5.21,4.3,8.14.84,4.21,2.38,8.39,1.52,12.83-.14.73,0,1.54.16,2.28,2.34,10.91,4.33,21.91,7.17,32.68,3.46,13.14,7.65,26.1,11.52,39.13.47,1.59.89,3.19,1.32,4.72,1.9.48,3.66.81,5.34,1.39,2.44.84,2.68,1.51,1.8,4.03-1.23,3.52-.74,4.66,2.68,6.18,1.61.72,3.22,1.43,4.77,2.12-.65,1.66-1.06,3.08-1.75,4.35-.39.73-1.15,1.34-1.88,1.8-.97.61-2.05,1.06-3.11,1.52-4.02,1.73-3.98,1.72-3.78,6.2.75,16.27,1.54,32.55,2.17,48.83.33,8.57.77,17.17.44,25.73-.54,13.97-1.68,27.91-2.56,41.86-3.09,1.44-4.84,4.35-8.42,4.03-.53-.05-2.67-.13-2.21,2.21.22,1.14-3.77,2.35-4.72,1.15-1.31-1.66-2.17-.56-3.37-.33-1.37.26-2.82.06-4.05.06-1.38,1.47-2.73,2.9-4.27,4.54-1.46-2.11-3.15-3.75-5.7-3.17-4.94-6.88-4.5-14.4-3.83-22.02.7-7.92,1.29-15.86,1.73-23.8.58-10.38.92-20.77,1.45-31.15.19-3.7.55-7.38.95-11.07.13-1.21.6-2.39.86-3.39-.36-2-.98-3.93-1.01-5.87-.09-6.92.03-13.84.03-20.76,0-.87-.2-1.74-.37-3.02-1.94.45-3.66.79-5.35,1.26-5.38,1.5-10.78,2.93-16.08,4.64-2.03.66-4.08,1.74-5.7,3.11-5.59,4.75-11.8,5.04-18.41,3-2.33-.72-4.51-.84-6.64.44,1.29,31.25.41,62.56,5.31,93.04Z"/>
      <path class="cls-1" d="m509.89,646.47c1.09-8.89,2.26-17.77,3.26-26.67.86-7.58,2.8-14.89,5.83-21.82,2.04-4.67,4.92-8.99,7.56-13.38,1.24-2.06,2.87-3.89,4.2-5.9.9-1.37,1.55-2.75,1.07-4.65-.89-3.52.52-5.92,3.95-7.24,2.55-.98,4.72-2.24,6.41-4.57,1.67-2.31,4-3.54,7.14-3.85,3.92-.39,7.73-1.8,11.6-2.68,1.23-.28,2.52-.26,3.78-.41,2.01-.24,4.02-.7,6.03-.71,4.19-.03,8.47-.32,12.55.41,4.08.73,7.97,2.52,11.91,3.94,2.29.82,4.5,2.05,6.86.23.09-.07.24-.08.37-.1,1.54-.22,8.7,3.55,9.06,5.1.49,2.15,1.86,3.26,3.58,4.23,1.75.99,3.16,2.15,2.82,4.53-.09.65.29,1.61.79,2.05,2.2,1.95,2.24,4.52,2.13,7.06-.12,2.64-.62,5.26-.81,7.9-.07.96.11,2.02.47,2.92,2.36,5.81,5.02,11.5,7.17,17.38,3.18,8.66,5.15,17.68,6.14,26.82.52,4.77,1.1,9.58,1.35,14.33.43,8.31-.51,16.63-4.98,24.09-3.22,5.38-5.98,11.08-9.59,16.18-6.88,9.71-15.71,16.71-27.94,18.84-8.35,1.46-16.62,1.23-24.93.23-5.47-.66-10.95-1.37-16.34-2.48-6.97-1.43-13.33-4.5-19.21-8.46-2.3-1.55-4.65-2.72-7.37-3.07-2.67-.35-4.16-2.04-5.69-4.08-6.66-8.81-8.53-19.04-8.92-29.68-.08-2.28.09-4.64,2.59-6.4,1.25-.88,1.97-3.64,1.64-5.3-.34-1.72-2.24-3.14-3.45-4.69-.34-.04-.69-.08-1.03-.12Zm45.6,1.17c-.22,7.34.22,12.93,1.57,18.47.59,2.42,1.64,3.94,4.21,4.25,4.06.49,8.11,1.48,12.17,1.49,10.72,0,20.27-2.69,26.45-12.58,2.68-4.29,5.11-8.64,5.93-13.64,1.14-6.98.97-14.02.35-21.06-.73-8.24-2.36-16.24-5.94-23.74-1.25-2.63-2.34-5.48-5.16-6.98-3.39-1.8-6.79-3.58-10.21-5.34-2.71-1.4-5.54-2.6-8.16-4.15-2.91-1.72-2.94-1.89-4.58.89-1.83,3.08-3.46,6.27-5.25,9.38-3.39,5.89-6.24,12.07-7.47,18.74-2.18,11.87-3.78,23.84-3.92,34.27Z"/>
      <path class="cls-1" d="m382.61,171.41c-4.48,1.36-8.64,2.54-12.75,3.88-6.34,2.07-12.61,4.36-18.97,6.35-2.64.82-4.12,2.08-4.32,5.01-.59,8.57-1.48,17.12-2.05,25.7-.54,8.18-.81,16.37-3.3,24.31-1.07,3.42-1.46,6.98-1.02,10.64.5,4.12-2.39,8.83-6.21,10.56-6.5-5.19-8.7-12.48-9.04-20.3-.92-21.16-.67-42.3.86-63.46,1.43-19.76,4.61-39.23,8.02-58.68,2.42-13.8,6.04-27.31,11.07-40.39,1.97-5.13,4.58-10.02,6.87-15.03.64-1.39,1.64-2.11,3.12-2.57,2.56-.8,5.12-1.72,7.52-2.92,3.15-1.58,5.7-.49,8.17,1.31,2.88,2.09,5.59,4.43,8.56,6.39,5.61,3.71,8.21,9.38,10.29,15.36,3.75,10.78,7.38,21.6,11.01,32.42,2.52,7.52,5.08,15.03,7.37,22.62.91,3.01,1.25,6.22,1.63,9.36.23,1.9,1.07,2.79,2.94,2.73,2.31-.07,4.62-.21,6.92-.23,3.27-.03,3.74.34,4.96,3.47.18.46.37,1.05.74,1.28,2.46,1.49,2.1,4.1,1.38,5.84-1.5,3.62.07,5.81,2.81,8.35-3.89,2.93-7.55,5.91-12.66,6.36-.96,3,.59,5.6,1.01,8.3.47,3.01,1.18,5.98,1.81,8.97,1.36,6.45,2.35,12.98,5.18,19.05,1.01,2.16,1.48,4.58,2.13,6.9,1.45,5.16,2.86,10.33,4.26,15.5.17.61.34,1.3.23,1.9-1.07,5.83-.58,11.69-.62,17.56-.02,2.24-1.24,4.65-2.46,6.64-.51.83-2.59,1.28-3.74,1-2.3-.57-4.57.1-6.93-.57-3.43-.98-7.18-.78-10.68-1.6-5.25-1.22-8.7-4.73-10.28-9.85-.94-3.04-1.39-6.23-2.14-9.33-2.46-10.21-4.36-20.51-5.76-30.94-1.25-9.33-3.09-18.58-4.71-27.86-.2-1.12-.67-2.19-1.25-4.04Zm-2.24-18.5c-.77-3.46-1.29-6.2-1.99-8.89-1.3-5.05-3.06-10.02-3.97-15.14-.94-5.29-1.7-10.54-4.28-15.35-.58-1.09-1-2.51-.84-3.69.46-3.63-2.51-6.66-1.58-10.31-2.31-3.55-1.94-7.9-3.48-11.67-.2-.49-.68-.87-1.26-1.59-.57,1.3-1.07,2.19-1.37,3.14-3.98,12.59-7.72,25.19-8.79,38.5-.75,9.3-2.71,18.5-4.01,27.77-.27,1.95-.04,3.98-.04,6.32,10.65-3.06,20.93-6.02,31.62-9.1Z"/>
      <path class="cls-1" d="m281.96,369.73c.82.71,1.49,1.45,2.3,1.97,7.21,4.66,12.91,10.99,18.28,17.49,3.38,4.09,5.69,9.12,8.18,13.89,2.72,5.22,5.16,10.59,7.61,15.95,1.54,3.37,2.99,6.79,4.3,10.25,3.19,8.38,6.35,16.78,9.39,25.22,1.41,3.92,3.23,7.88,3.61,11.94.4,4.25.56,8.91-2.94,12.53-3.69,3.82-6.28,4.3-11.11,1.97-.7-.34-1.72-.31-2.5-.11-.97.25-1.84.85-2.7,1.28-4.75-3.17-8.18-7.37-10.84-12.23-4.78-8.74-8.77-17.8-11.75-27.33-3.94-12.59-8.07-25.12-12.26-37.63-2.1-6.26-5.03-12.04-10.3-16.4-3.46-2.86-6.69-5.99-10.03-8.98-.47-.42-1.01-.8-1.56-1.12-2.5-1.46-3.8-.82-4.08,2.1-.17,1.78-.15,3.57-.22,5.36-.23,6.4-.47,12.8-.67,19.19-.02.75.02,1.56.25,2.27,2.41,7.68,2.87,15.62,3.2,23.57.19,4.45.4,8.7,2.07,13.09,1.78,4.68,1.91,10.02,1.07,15.17-.2,1.25-.41,2.53-.36,3.79.15,3.56-1.49,6.47-3.38,9.2-1.75,2.52-7.94,3.9-10.8,2.71-2.25-.93-4.5-1.85-6.74-2.79-1.71-.72-2.4-2.1-2.76-3.87-1.02-5.01-1.82-10.11-3.37-14.96-2.27-7.09-2.53-14.38-3.14-21.65-.44-5.22-.59-10.44-3.01-15.34-1.43-2.9-1.89-6.31-.79-9.4,2.03-5.72,1.93-11.63,1.99-17.49.08-7.69-.36-15.38-.57-23.07-.02-.77-.1-1.56.02-2.31,1.46-9.41.17-18.98,1.49-28.36.84-5.94,1.77-12.11,4.17-17.51,2.77-6.24,7.02-11.88,11-17.51,1.66-2.34,4.19-4.14,6.52-5.93,4.2-3.21,8.93-2.15,13.27-.66,4.82,1.65,9.41,4.01,13.99,6.28,3.79,1.88,5.6,5.63,7.26,9.19,4.34,9.31,8.1,18.86,9.1,29.2.32,3.25.51,6.59-1.25,9.73-.78,1.39-.62,3.28-1.28,4.77-2.44,5.51-5.44,10.68-9.7,15.03-.34.34-.53.82-.95,1.52Zm-18.85-53.98c-1.72,4.01-3.24,7.94-5.07,11.71-2.04,4.2-.93,8.52-.91,12.81.01,3.3.49,6.67,0,9.89-.71,4.66-2.22,9.2-3.18,13.83-.54,2.6-.67,5.29,1.45,7.72,4.86-2.31,9.75-3.95,14.83-2.68,1.19-4.18,2.5-7.81,3.23-11.54,1.03-5.26,2.28-10.61,2.26-15.92-.03-7.74-3.19-14.9-6.13-21.97-1.02-2.45-3.22-3.5-6.47-3.85Z"/>
      <path class="cls-1" d="m350.49,479.47c-.37-2.28-.83-4.4-1.04-6.55-1.04-10.72-2.19-21.43-2.95-32.16-.48-6.77-.54-13.59-.45-20.39.12-9.35.61-18.69.83-28.03.05-1.9-.38-3.81-.62-6-2.24-.61-4.16-1.71-3.92-4.62.18-2.11,2.16-1.32,3.43-2.18,0-7.6-.2-15.29.06-22.96.22-6.38.13-12.92,2.28-19,1.81-5.13,4.9-9.54,10.75-11,.75-.19,1.58-.28,2.19-.7,4.39-2.97,9.22-1.98,13.74-1.04,3.68.77,6.6,3.45,8.4,6.9,3.06,5.85,4.96,12.09,5.48,18.7.63,7.93,1.34,15.85,1.75,23.79.29,5.57.04,11.17.21,16.75.11,3.56.7,7.1.79,10.66.14,5.49-.1,10.99.07,16.48.29,9.47.31,18.99,1.28,28.4,1.04,10.06,3.03,20.03,4.67,30.03.83,5.06,1.99,10.07,2.66,15.15.57,4.39-.7,8.38-4.07,11.7-2.65.28-5.52.76-8.39.79-1.23.01-2.54-.78-3.68-1.43-1.41-.81-2.67-1.88-4.03-2.79-1.16-.78-2.54,1.39-3.67-.23-2.13,1.17-3.34-.51-4.13-1.79-1.91-3.09-5.27-4.25-7.78-6.51-.79-.71-1.73-1.53-2.02-2.48-1.37-4.52-5.61-6.25-8.65-9.12-.51-.48-1.71-.23-3.2-.37Z"/>
      <path class="cls-1" d="m401.27,287.49c.18,3.77-1.57,6.49-4.03,9.2-4.07,4.47-9.24,6.09-14.86,7.07-1.24.22-2.41,1.12-3.63,1.15-2.13.06-4.33-.69-6.39-.37-1.89.29-3.63,2.2-5.45,2.23-2.73.05-5.47-.96-8.23-1.45-2.78-.49-4.82-2.14-6.63-4.12-2.83-3.09-6.48-5.38-8.56-9.24-.67-1.24-2.32-1.95-3.53-2.89-3.9-3.04-3.96-6.9,0-9.78,5.16-3.76,10.11-7.89,16.45-9.63,1.48-.4,2.93-.95,4.44-1.2,4.91-.81,9.82-1.86,14.77-2.18,4.93-.31,9.97-.18,14.39,2.72,2.97,1.95,4.92,4.46,4.61,8.24-.14,1.75.6,2.74,2.28,3.45,2.92,1.24,4.89,3.31,4.38,6.8Z"/>
      <path class="cls-1" d="m136.13,104.44c-3.3.04-5.82-2.22-5.92-5.31-.11-3.41,3.17-6.56,6.74-6.49,3.01.06,6.3,2.66,6.43,5.07.2,3.72-2.98,6.68-7.24,6.73Z"/>
      <path class="cls-1" d="m131.73,239.87c-.05,1.99-2.51,4.08-4.74,4.03-2.23-.04-4.5-2.4-4.33-4.48.16-2.03,2.42-4.1,4.37-4,2.71.14,4.77,2.08,4.71,4.45Z"/>
      <path class="cls-1" d="m4.61,509.63c-.53.39-1.36,1.38-2.38,1.64-1.23.32-2.59-1.44-2.14-2.9.28-.91,1.24-1.94,2.13-2.24,1.23-.41,2.5,1.23,2.39,3.5Z"/>
      <path class="cls-1" d="m25.89,608.27c.69.96,1.59,1.67,1.49,2.19-.12.66-1.06,1.16-1.65,1.74-.61-.65-1.46-1.22-1.72-1.99-.11-.32,1-1.07,1.88-1.94Z"/>
      <path class="cls-2" d="m714.11,563.5c1.35-1.14,2.44-2.06,3.73-3.15.7,1.07,1.12,1.78,1.6,2.45.27.38.94.96.9,1.01-1.64,1.97.38,3.45.85,5.48-1.78,1.26-3.75,2.38-5.35,3.88-1,.94-1.46,2.46-2.34,4.05-.23-.02-1.32-.37-1.56-.06-.72.92-1.28,2.06-1.57,3.19-.7,2.73-2.22,4.28-4.48,3.21-2.98-1.41-4.69-.31-6.13,1.52-2.2-.54-4.18-.77-5.93-1.52-1.91-.81-3.61-2.1-5.72-3.37-1.72,1.41-3.84,3.15-6.53,5.35-.14-2.51-.37-4.38-.32-6.25.12-4.48.33-8.97.57-13.45.17-3.24.89-6.38,2.69-9.12,2.26-3.42,4.77-6.68,6.98-10.14,2.76-4.32,7.11-4.31,11.22-3.83,2.37.28,4.72,1.92,6.76,3.39,2.41,1.75,2.6,3.43,1.03,6.01-1.52,2.51-3.31,4.85-4.93,7.3-1.25,1.9-2.41,3.85-3.76,6.02,3.78-.54,6.33-1.88,8.78-4.44.9-.94,2.14-.8,2.85.37.18.3.09.75.2,1.11.1.33.3.63.47.96Z"/>
      <path class="cls-2" d="m628.36,57.01c.52-3.05,2.47-3.57,5-4,3.76-.64,6.56-3.06,8.36-6.49.29-.55.41-1.34.86-1.63,3.39-2.16,3.78-5.58,4.04-9.1.02-.24.16-.47.32-.93,3.4-.54,6.73.03,10.29,1.23-.89,1.34-1.45,2.88-2.54,3.66-2.51,1.78-2.66,4.55-3.49,7.04-.22.66-.13,1.51.06,2.21.69,2.55,1.47,5.06,2.26,7.72q3.98.53,4.56,4.03c.92-.51,1.77-.99,2.57-1.44,1.71.54,2.79,2.48,4.97,1.56,2.55-1.07,4.82-2.37,6.22-4.85.18-.32.08-.89.32-1.09,3.58-2.95,3.28-7.2,3.8-11.55.98.31,1.91.52,2.76.88,9.86,4.12,16.78,11.07,20.64,21.1,1.52,3.95,3.42,7.74,5.09,11.63.34.78.55,1.67.6,2.52.3,5.41-.61,10.63-2,15.88-2,7.55-3.49,15.24-5.33,22.84-.53,2.18-1.52,4.25-2.3,6.37-.29.78-.58,1.56-.39,2.68,1.02-.82,2.04-1.65,3.38-2.72.3.96.56,1.78.95,3.04,1.62-1.24,3.03-2.32,4.79-3.67.97.92,2.06,1.9,3.09,2.95,1.09,1.12,2.27,1.54,3.75.48.27,1.52.49,2.75.75,4.23-.28.22-.64.72-1.08.82-1.99.46-2.54,1.79-2.45,3.62.02.48.06,1.29-.17,1.4-4.01,1.96-4.47,7.67-9.42,8.77-1.28.29-2.26,1.93-3.66,3.21-1.69-.14-3.75-.05-5.68-.54-1.91-.48-3.68-1.54-5.67-2.41-4.5,7.75-10.21,14.47-16.01,21.09-4.52,5.16-9.93,9.23-16.34,11.84-11.28,4.59-22.56,9.17-33.85,13.73-.93.38-1.94.56-3.31.94-.23-2.33-.82-4.49-.57-6.55.89-7.53-.34-15.01-.13-22.5.1-3.7-.21-7.34-.29-11-.08-3.79-.16-7.59-.11-11.38.02-1.89.19-3.81.53-5.67.48-2.63,1.23-5.12.91-7.93-.25-2.2.72-4.51.96-6.8.33-3.16.45-6.34.71-9.51.81-9.95,1.76-19.9,2.41-29.86.29-4.47-.14-8.97,0-13.45.09-2.91.49-5.83,1-8.7.32-1.82,3.55-3.86,5.69-3.89.89-.01,1.78.08,3.17.15Z"/>
      <path class="cls-2" d="m555.49,647.64c.14-10.43,1.74-22.4,3.92-34.27,1.23-6.67,4.07-12.85,7.47-18.74,1.79-3.1,3.43-6.3,5.25-9.38,1.64-2.77,1.68-2.61,4.58-.89,2.62,1.55,5.44,2.75,8.16,4.15,3.41,1.76,6.82,3.54,10.21,5.34,2.82,1.5,3.91,4.35,5.16,6.98,3.58,7.5,5.21,15.5,5.94,23.74.62,7.04.78,14.08-.35,21.06-.81,5-3.25,9.35-5.93,13.64-6.18,9.9-15.74,12.59-26.45,12.58-4.06,0-8.11-1-12.17-1.49-2.57-.31-3.62-1.83-4.21-4.25-1.36-5.54-1.79-11.13-1.57-18.47Z"/>
      <path class="cls-2" d="m380.37,152.92c-10.69,3.08-20.97,6.03-31.62,9.1,0-2.34-.23-4.37.04-6.32,1.3-9.26,3.26-18.47,4.01-27.77,1.07-13.32,4.81-25.91,8.79-38.5.3-.95.8-1.84,1.37-3.14.58.72,1.06,1.09,1.26,1.59,1.54,3.77,1.17,8.12,3.48,11.67-.93,3.64,2.04,6.68,1.58,10.31-.15,1.19.26,2.61.84,3.69,2.58,4.82,3.34,10.07,4.28,15.35.91,5.12,2.67,10.08,3.97,15.14.7,2.69,1.22,5.43,1.99,8.89Z"/>
      <path class="cls-2" d="m263.1,315.75c3.25.35,5.45,1.4,6.47,3.85,2.94,7.07,6.1,14.23,6.13,21.97.02,5.31-1.23,10.66-2.26,15.92-.73,3.74-2.03,7.36-3.23,11.54-5.07-1.27-9.97.37-14.83,2.68-2.13-2.43-2-5.12-1.45-7.72.97-4.63,2.47-9.17,3.18-13.83.49-3.22.01-6.59,0-9.89-.02-4.29-1.13-8.61.91-12.81,1.83-3.77,3.35-7.69,5.07-11.71Z"/>
      <path class="cls-1" d="m132.27,547.77c-.85.34-1.28.68-1.61.6-.36-.09-.64-.56-.95-.87.36-.24.72-.66,1.08-.66.36,0,.72.42,1.48.92Z"/>
    </g>
  </g>
</svg>