<svg xmlns="http://www.w3.org/2000/svg" id="Layer_1" data-name="Layer 1" viewBox="-0.01 0 1099.96 181.97">
  <defs>
    <style>
      .cls-1 {
        fill: #231f20;
        stroke-width: 0px;
      }
    </style>
  </defs>
  <g>
    <g>
      <path class="cls-1" d="m126.93,166.73l-15.64-24.82v38.9h-17.88v-69.87h15.83l21.3,33.33,21.5-33.33h15.54v69.87h-17.59v-38.9l-16.03,24.82h-7.04Z"/>
      <path class="cls-1" d="m243.71,110.92v69.87h-14.66l-28.93-40.26v40.26h-17.79v-69.87h14.76l29.03,39.58v-39.58h17.59Z"/>
      <path class="cls-1" d="m258.37,180.8v-69.97h30.59c3.65,0,6.97.55,9.97,1.66,3,1.11,5.57,2.69,7.72,4.74,2.15,2.05,3.83,4.46,5.03,7.23,1.21,2.77,1.81,5.82,1.81,9.14,0,2.22-.29,4.32-.88,6.31-.59,1.99-1.4,3.8-2.44,5.42-1.04,1.63-2.3,3.1-3.76,4.4-1.47,1.3-3.08,2.48-4.84,3.52l12.7,27.56h-18.96l-9.97-24.04h-9.09v24.04h-17.88Zm27.46-38.5c1.56,0,2.9-.23,4.01-.68,1.11-.46,2.05-1.07,2.83-1.86.78-.78,1.37-1.68,1.76-2.69.39-1.01.59-2.1.59-3.27s-.2-2.25-.59-3.22c-.39-.98-.96-1.82-1.71-2.54-.75-.72-1.68-1.27-2.78-1.66-1.11-.39-2.41-.59-3.91-.59h-9.77v16.52h9.58Z"/>
      <path class="cls-1" d="m365.68,110.92h21.4l-24.82,30.59,24.92,39.28h-20.52l-16.81-26.78-7.33,8.6v18.18h-17.89v-69.87h17.89v28.83l23.16-28.83Z"/>
    </g>
    <g>
      <path class="cls-1" d="m450.89,166.72l-15.64-24.82v38.9h-17.88v-69.87h15.83l21.3,33.32,21.5-33.32h15.54v69.87h-17.59v-38.9l-16.03,24.82h-7.04Z"/>
      <path class="cls-1" d="m564.64,153.73c0,3.98-.68,7.69-2.05,11.14-1.37,3.45-3.37,6.43-6.01,8.94-2.64,2.51-5.78,4.5-9.43,5.96-3.65,1.47-7.69,2.2-12.12,2.2s-8.37-.73-12.02-2.2c-3.65-1.47-6.78-3.45-9.38-5.96-2.61-2.51-4.63-5.49-6.06-8.94-1.43-3.45-2.15-7.17-2.15-11.14v-42.8h17.88v41.44c0,1.95.26,3.73.78,5.33.52,1.6,1.32,2.96,2.39,4.1,1.07,1.14,2.35,2.02,3.81,2.64,1.47.62,3.04.93,4.74.93,1.89,0,3.57-.31,5.03-.93,1.47-.62,2.7-1.5,3.71-2.64,1.01-1.14,1.79-2.51,2.35-4.1.55-1.6.83-3.37.83-5.33v-41.44h17.69v42.8Z"/>
      <path class="cls-1" d="m610.96,132.62c-1.3-2.35-2.92-4.1-4.84-5.28-1.92-1.17-4.06-1.76-6.4-1.76-.91,0-1.78.08-2.59.25-.81.16-1.56.47-2.25.93s-1.22,1.04-1.61,1.76c-.39.72-.59,1.56-.59,2.54,0,.85.31,1.63.93,2.35.62.72,1.5,1.37,2.64,1.95,1.14.59,2.41,1.16,3.81,1.71,1.4.55,2.92,1.19,4.54,1.9,2.87,1.24,5.55,2.48,8.06,3.72,2.51,1.24,4.67,2.69,6.5,4.35,1.82,1.66,3.29,3.55,4.4,5.67,1.11,2.12,1.66,4.8,1.66,8.06,0,2.93-.62,5.68-1.86,8.26-1.24,2.57-2.98,4.82-5.23,6.74-2.25,1.92-4.94,3.44-8.06,4.54-3.13,1.11-6.68,1.66-10.65,1.66-2.67,0-5.31-.31-7.92-.93-2.61-.62-5.07-1.51-7.38-2.69-2.31-1.17-4.43-2.66-6.35-4.45-1.92-1.79-3.57-3.83-4.94-6.11l12.12-10.36c1.56,2.41,3.6,4.46,6.11,6.16,2.51,1.7,5.29,2.54,8.36,2.54,1.17,0,2.25-.1,3.23-.29.98-.19,1.82-.5,2.54-.93.72-.42,1.29-.94,1.71-1.56.42-.62.63-1.32.63-2.1,0-1.17-.33-2.12-.98-2.84-.65-.71-1.61-1.38-2.88-2-1.27-.62-2.82-1.3-4.64-2.05-1.82-.75-4.01-1.64-6.55-2.69-2.61-1.17-4.97-2.35-7.08-3.52-2.12-1.17-3.94-2.54-5.47-4.1-1.53-1.56-2.74-3.4-3.62-5.52-.88-2.12-1.32-4.48-1.32-7.08,0-3.19.62-6.12,1.86-8.8,1.24-2.67,3-4.95,5.28-6.84,2.28-1.89,4.92-3.37,7.92-4.45,3-1.08,6.29-1.61,9.87-1.61,2.67,0,5.18.28,7.52.83,2.34.55,4.51,1.4,6.5,2.54,1.99,1.14,3.79,2.53,5.42,4.15,1.63,1.63,3.06,3.45,4.3,5.47l-12.7,9.87Z"/>
      <path class="cls-1" d="m634.81,110.92h17.79v69.87h-17.79v-69.87Z"/>
      <path class="cls-1" d="m729.6,164.28c-1.5,2.74-3.31,5.18-5.42,7.33-2.12,2.15-4.51,3.97-7.18,5.47-2.67,1.5-5.54,2.69-8.6,3.57-3.06.88-6.25,1.32-9.58,1.32-5.21,0-10.07-.94-14.56-2.83-4.5-1.89-8.34-4.46-11.53-7.72-3.19-3.26-5.7-7.1-7.52-11.53-1.83-4.43-2.74-9.12-2.74-14.07s.88-9.8,2.64-14.17c1.76-4.36,4.25-8.14,7.48-11.34,3.22-3.19,7.1-5.75,11.63-7.67,4.53-1.92,9.56-2.88,15.1-2.88,3.32,0,6.45.38,9.38,1.12,2.93.75,5.7,1.84,8.31,3.27,2.61,1.43,4.95,3.22,7.04,5.37,2.08,2.15,3.87,4.76,5.38,7.82l-13.39,10.07c-.85-1.69-1.87-3.21-3.08-4.54-1.21-1.33-2.58-2.49-4.1-3.47-1.53-.98-3.13-1.71-4.79-2.2-1.66-.49-3.31-.73-4.94-.73-2.87,0-5.44.51-7.72,1.51-2.28,1.01-4.19,2.36-5.72,4.06s-2.75,3.7-3.66,6.01c-.91,2.31-1.37,4.9-1.37,7.77,0,2.67.47,5.21,1.42,7.62.94,2.41,2.18,4.48,3.71,6.2,1.53,1.73,3.39,3.08,5.57,4.06,2.18.98,4.61,1.47,7.28,1.47,3.52,0,6.73-.88,9.63-2.64,2.9-1.76,5.42-4.56,7.57-8.4l13.78,10.16Z"/>
    </g>
    <g>
      <path class="cls-1" d="m790.55,140.63v14.56h13.58v3.5c-.61.77-1.23,1.49-1.91,2.12-1.08,1.01-2.28,1.86-3.62,2.54-1.34.68-2.74,1.21-4.2,1.56-1.47.36-3.21.54-5.23.54-2.67,0-5.13-.5-7.38-1.51-2.25-1.01-4.17-2.4-5.77-4.15-1.6-1.76-2.85-3.84-3.76-6.26-.91-2.41-1.37-5.01-1.37-7.82s.46-5.38,1.37-7.72c.91-2.34,2.2-4.4,3.86-6.16,1.66-1.76,3.63-3.13,5.91-4.1,2.28-.98,4.89-1.47,7.82-1.47,3.97,0,7.38.98,10.21,2.93,2.83,1.96,5.1,4.17,6.79,6.65l12.9-10.65c-1.43-2.21-3.11-4.28-5.03-6.21-1.92-1.92-4.12-3.57-6.6-4.94-2.48-1.37-5.21-2.43-8.21-3.17-3-.75-6.22-1.13-9.67-1.13-5.6,0-10.69.96-15.25,2.88-4.56,1.92-8.52,4.48-11.87,7.67-3.36,3.19-5.93,6.97-7.72,11.33-1.79,4.37-2.69,9.06-2.69,14.07s.91,9.74,2.74,14.17c1.82,4.43,4.33,8.28,7.53,11.53,3.19,3.26,7.05,5.83,11.58,7.72,4.53,1.89,9.53,2.83,15,2.83,3.58,0,6.94-.43,10.07-1.27,3.13-.85,6.03-2.03,8.7-3.57,2.67-1.53,5.03-3.29,7.09-5.28,2.05-1.99,3.79-4.19,5.23-6.6v-24.63h-30.1Z"/>
      <path class="cls-1" d="m831.21,180.8v-69.97h30.59c3.65,0,6.97.55,9.97,1.66,3,1.11,5.57,2.69,7.72,4.74,2.15,2.05,3.83,4.46,5.03,7.23,1.2,2.77,1.81,5.81,1.81,9.14,0,2.21-.29,4.32-.88,6.3-.59,1.99-1.4,3.8-2.44,5.42-1.04,1.63-2.3,3.1-3.76,4.4-1.47,1.3-3.08,2.48-4.84,3.52l12.7,27.56h-18.96l-9.97-24.04h-9.09v24.04h-17.88Zm27.46-38.5c1.56,0,2.9-.23,4.01-.68,1.11-.45,2.05-1.07,2.83-1.86.78-.78,1.37-1.68,1.76-2.69.39-1.01.59-2.1.59-3.28s-.2-2.25-.59-3.22c-.39-.98-.96-1.82-1.71-2.54-.75-.72-1.68-1.27-2.78-1.66-1.11-.39-2.41-.59-3.91-.59h-9.77v16.52h9.58Z"/>
      <path class="cls-1" d="m928.93,109.74c5.41,0,10.34.96,14.81,2.88,4.46,1.92,8.31,4.48,11.53,7.67,3.23,3.19,5.73,6.97,7.52,11.33,1.79,4.37,2.69,9.06,2.69,14.07s-.9,9.82-2.69,14.22c-1.79,4.4-4.3,8.23-7.52,11.48-3.23,3.26-7.07,5.83-11.53,7.72-4.46,1.89-9.43,2.83-14.9,2.83s-10.2-.95-14.76-2.83c-4.56-1.89-8.45-4.46-11.68-7.72-3.23-3.26-5.73-7.08-7.52-11.48-1.79-4.4-2.69-9.14-2.69-14.22s.89-9.71,2.69-14.07c1.79-4.36,4.3-8.14,7.52-11.33,3.23-3.19,7.12-5.75,11.68-7.67,4.56-1.92,9.51-2.88,14.85-2.88Zm0,16.52c-2.8,0-5.31.49-7.52,1.47-2.22.98-4.14,2.36-5.77,4.15-1.63,1.79-2.92,3.88-3.86,6.25-.95,2.38-1.42,4.9-1.42,7.57,0,2.8.47,5.41,1.42,7.82.94,2.41,2.23,4.5,3.86,6.26,1.63,1.76,3.55,3.14,5.77,4.15,2.21,1.01,4.72,1.51,7.52,1.51s5.15-.5,7.43-1.51c2.28-1.01,4.23-2.4,5.86-4.15,1.63-1.76,2.9-3.84,3.81-6.26.91-2.41,1.37-4.98,1.37-7.72s-.47-5.21-1.42-7.62c-.95-2.41-2.22-4.51-3.81-6.3-1.6-1.79-3.53-3.18-5.81-4.15-2.28-.98-4.76-1.47-7.43-1.47Z"/>
      <path class="cls-1" d="m1033.79,153.72c0,3.97-.68,7.69-2.05,11.14-1.37,3.45-3.37,6.43-6.01,8.94-2.64,2.51-5.78,4.49-9.43,5.96-3.65,1.47-7.69,2.2-12.12,2.2s-8.37-.73-12.02-2.2c-3.65-1.47-6.78-3.45-9.38-5.96-2.61-2.51-4.63-5.49-6.06-8.94-1.43-3.45-2.15-7.17-2.15-11.14v-42.81h17.88v41.44c0,1.95.26,3.73.78,5.33.52,1.6,1.32,2.96,2.4,4.1,1.07,1.14,2.35,2.02,3.81,2.64,1.47.62,3.04.93,4.74.93,1.89,0,3.57-.31,5.03-.93,1.47-.62,2.7-1.5,3.71-2.64,1.01-1.14,1.79-2.51,2.35-4.1.55-1.6.83-3.37.83-5.33v-41.44h17.69v42.81Z"/>
      <path class="cls-1" d="m1065.55,180.79h-17.79v-69.88h27.27c3.52,0,6.82.6,9.92,1.81,3.09,1.21,5.75,2.88,7.96,5.03,2.21,2.15,3.94,4.69,5.18,7.62,1.24,2.93,1.86,6.12,1.86,9.58s-.62,6.91-1.86,9.97c-1.24,3.06-2.98,5.67-5.23,7.82-2.25,2.15-4.89,3.81-7.92,4.98-3.03,1.17-6.3,1.76-9.82,1.76h-9.58v21.31Zm7.23-36.45c1.3,0,2.49-.21,3.57-.63,1.08-.42,2.02-1.06,2.84-1.91.81-.85,1.45-1.87,1.91-3.08.45-1.21.68-2.49.68-3.86,0-1.24-.23-2.41-.68-3.52-.46-1.11-1.09-2.04-1.91-2.79-.82-.75-1.76-1.37-2.84-1.86-1.07-.49-2.26-.73-3.57-.73h-7.23v18.37h7.23Z"/>
    </g>
  </g>
  <path class="cls-1" d="m131.59,70.32l1.34-3.45-3.07-2.08c-.68-.46-16.9-11.36-32.41-13.41-9.25-1.22-18.44.45-26.41,4.53,1.55-8.82.44-18.09-3.45-26.57C61.06,15.12,45.87,2.83,45.23,2.32l-2.89-2.32-2.91,2.3c-.29.23-7.17,5.75-11.71,15.64-3.84,8.35-6.67,21.38.16,37.58-7.22,3.11-20.22,10.36-26.24,24.1l-1.65,3.76,3.53,2.1c13.98,8.32,30.91,8.49,44.42,1.72-2.5,14.9,2.66,31.04,14.73,41.94l3.05,2.75,3.11-2.68c11.36-9.8,14.46-24.36,15.3-32.17,17.5,1.75,29.11-4.79,35.96-10.92,8.11-7.26,11.36-15.45,11.49-15.8Zm-97.83,11.81c-7.37,1.26-14.87.33-21.54-2.62,7.76-12.24,23.16-16.89,23.32-16.94l5.46-1.58-2.63-5.04c-11.67-22.39-1.28-37.81,4.1-43.71,4.47,4.08,12.69,12.31,16.67,20.98,5.41,11.78,4.06,25.49-3.54,35.78-5.12,6.94-12.88,11.6-21.84,13.13Zm80.14-2.94c-8.66,7.74-19.85,10.42-33.27,7.96l-5.57-1.01.07,5.66c0,.18.09,16.27-9.32,27.29-4.78-5.51-7.88-12.4-8.85-19.82-1.18-9.02.99-17.81,6.12-24.74,7.59-10.28,20.29-15.62,33.15-13.92,9.44,1.25,19.71,6.66,24.93,9.73-1.43,2.4-3.8,5.75-7.27,8.86Z"/>
</svg>