<svg xmlns="http://www.w3.org/2000/svg" id="logosandtypes_com" viewBox="14 0 122.4 136.1"><path d="M0 0h150v150H0V0z" fill="none"/><path d="M66.5 103.2c-3.5-.3-5.5-1-6.4-1.9-1.4-1.4-2.3-4.4-2.3-9.2V58.7l39.6 47.1h1.5V60.7c0-4.5.4-7.4 1.5-8.7 1.1-1.3 3.7-2.1 6.6-2.4v-1.7H86.8v1.6c2.9.2 5.2.9 6.1 1.8 1.5 1.5 2 4.5 2 9.2v28.7L60.7 47.9h-15v1.6c1.4 0 2.7.2 4 .6.9.4 2.1 1.3 3.4 2.8l1.3 1.4v37.8c0 4.5-.5 7.4-1.6 8.7-1 1.2-3.6 2-7.1 2.4v1.5h20.8v-1.5z"/><path d="M136.4 74c-.7-30.5-23.9-55.9-54.2-59.3L74.4 0l-8.2 15C36.8 19.4 14.7 44.3 14 74v1.5c.3 33.8 28 60.9 61.8 60.6 33.3-.3 60.3-27.3 60.6-60.6V74zM74.9 2.3l6.5 12.3c-1.9-.2-3.9-.3-5.8-.3H75l-.1-12zM32.8 32.1c10.8-10.6 25.3-16.8 40.4-17.2h1.9c32.7 0 59.5 25.9 60.6 58.5h-7.3c-.9-28.7-24.5-51.5-53.3-51.3-28.8-.2-52.4 22.6-53.3 51.3h-7.2c.5-15.6 7.1-30.4 18.2-41.3zM22.4 74l7.1.1c.8-24.5 20.9-44.3 45.6-44.3s44.8 19.8 45.6 44.3l7.1-.1-7.1.1c0 26-20.4 47-45.6 47s-45.6-21-45.6-47l-7.1-.1v0zm105 1.5c-.3 28.8-23.9 52-52.8 51.7-28.4-.3-51.4-23.2-51.7-51.7v-.9l6 .1c.3 26 20.9 47 46.2 47s45.9-21 46.2-47l5.9-.1c.2.3.2.6.2.9z"/></svg>