<svg xmlns="http://www.w3.org/2000/svg" id="Layer_1" viewBox="0 -0.5 695.69 176"><defs><style>.cls-1{fill:#fa5733;}.cls-2{fill:#fff;}.cls-3{fill:none;stroke:#fa5733;stroke-miterlimit:10;}</style></defs><path class="cls-1" d="m118.52,107.37l-.02.32c0,1.24-.52,3.02-1.37,5.12-2.13,5.26-6.33,12.51-9.59,18.22-4.57,7.99-8.14,13.96-13.75,13.96h-57.09L119.84,28.6v-.88H10.55c-5.74,0-8.97-1.76-8.97-5.27l-1.58-.35v45.91l1.58-.38.02-.32c0-1.24.52-3.02,1.37-5.12,2.13-5.26,6.33-12.51,9.59-18.22,4.57-7.99,8.14-13.96,13.75-13.96h58.23L.52,146.4v.88h27.18s0,0,0,0h81.85c5.74,0,8.97,1.76,8.97,5.27l1.58.35v-45.91l-1.58.38Z"/><path class="cls-1" d="m414.74,145.97l-.32-.02c-1.24,0-3.02-.52-5.12-1.37-5.26-2.13-12.51-6.33-18.22-9.59-7.99-4.57-13.96-8.14-13.96-13.75v-57.09l116.39,83.15h.88V38c0-5.74,1.76-8.97,5.27-8.97l.35-1.58h-45.91l.38,1.58.32.02c1.24,0,3.02.52,5.12,1.37,5.26,2.13,12.51,6.33,18.22,9.59,7.99,4.57,13.96,8.14,13.96,13.75v58.23l-116.39-84.03h-.88v27.18s0,0,0,0v81.85c0,5.74-1.76,8.97-5.27,8.97l-.35,1.58h45.91l-.38-1.58Z"/><path class="cls-1" d="m185.35,146.57c-14.22,0-26.7-5.74-37.42-17.22-10.73-11.48-16.09-26.31-16.09-44.5,0-8.86,1.6-17.14,4.81-24.83,3.2-7.69,7.46-14.13,12.76-19.32,5.3-5.18,11.34-9.24,18.1-12.15,6.76-2.91,13.64-4.37,20.63-4.37,3.38,0,8.25.55,14.6,1.66,6.35,1.11,10.46,1.66,12.33,1.66,4.43,0,6.64-1.57,6.64-4.72l1.57-.35,10.49,48.43-1.4.7c-4.55-9.56-9.03-17.54-13.46-23.95-4.43-6.41-8.57-11.07-12.41-13.99-3.85-2.91-7.14-4.87-9.88-5.86-2.74-.99-5.57-1.49-8.48-1.49-8.51,0-15.45,3.47-20.81,10.4-5.36,6.94-8.04,16.82-8.04,29.64,0,18.42,4.52,33.05,13.55,43.89,9.03,10.84,19.38,16.26,31.04,16.26,15.5,0,25.7-7.69,30.6-23.08l1.57.52c-3.5,12.36-9.65,22.56-18.45,30.6-8.8,8.04-19.56,12.06-32.26,12.06Z"/><path class="cls-1" d="m304.87,146.57c-9.78,0-19.03-2.36-27.76-7.07-8.73-4.71-15.98-11.84-21.74-21.39-5.76-9.54-8.64-20.48-8.64-32.82,0-18.39,5.85-33.17,17.55-44.35,11.7-11.17,25.23-16.76,40.59-16.76,7.33,0,14.43,1.4,21.3,4.19,6.87,2.79,13.06,6.72,18.59,11.79,5.53,5.06,9.95,11.52,13.27,19.38,3.32,7.86,4.98,16.44,4.98,25.75,0,18.39-5.85,33.2-17.55,44.43-11.7,11.23-25.23,16.85-40.59,16.85Zm-11.61-6.9c3.2,3.2,7.07,4.8,11.61,4.8s8.44-1.6,11.7-4.8c3.26-3.2,5.76-7.68,7.51-13.44,1.75-5.76,3.03-11.99,3.84-18.68.81-6.69,1.22-14.11,1.22-22.26,0-39.34-8.09-59.01-24.27-59.01-4.54,0-8.41,1.6-11.61,4.8s-5.68,7.65-7.42,13.36c-1.75,5.7-3.03,11.9-3.84,18.59-.82,6.7-1.22,14.12-1.22,22.26s.41,15.57,1.22,22.26c.81,6.69,2.09,12.92,3.84,18.68,1.75,5.76,4.22,10.24,7.42,13.44Z"/><line class="cls-3" x1="535.01" x2="535.01" y2="175"/><g id="PRIMARY_-_GHOST"><path class="cls-2" d="m686.34,118.69c-20.4-9.88-23.66-25.13-23.8-26.26-.18-1.37-.37-2.45,1.14-3.84,1.46-1.35,7.92-5.35,9.72-6.6,2.97-2.07,4.27-4.14,3.31-6.69-.67-1.76-2.31-2.42-4.04-2.42-.54,0-1.09.06-1.62.18-3.26.71-6.42,2.34-8.25,2.78-.22.06-.45.09-.67.09-.98,0-1.35-.43-1.25-1.61.23-3.56.71-10.51.15-17.01-.77-8.93-3.65-13.36-7.07-17.28-1.65-1.9-9.33-10.06-24.14-10.06s-22.48,8.16-24.12,10.03c-3.43,3.92-6.31,8.34-7.07,17.28-.56,6.49-.06,13.44.15,17.01.07,1.12-.28,1.61-1.25,1.61-.23,0-.45-.03-.67-.09-1.83-.44-4.99-2.07-8.25-2.78-.53-.12-1.07-.18-1.62-.18-1.73,0-3.37.67-4.04,2.42-.96,2.55.34,4.62,3.31,6.69,1.79,1.25,8.26,5.25,9.72,6.6,1.51,1.39,1.31,2.47,1.14,3.84-.14,1.15-3.4,16.4-23.8,26.26-1.2.58-3.23,1.8.36,3.78,5.63,3.11,9.38,2.78,12.29,4.65,2.47,1.59,1.01,5.03,2.81,6.27,2.21,1.53,8.74-.11,17.17,2.68,7.07,2.33,11.37,8.91,23.9,8.91s16.96-6.61,23.9-8.91c8.42-2.78,14.96-1.15,17.17-2.68,1.79-1.24.34-4.67,2.81-6.27,2.91-1.88,6.66-1.54,12.29-4.65,3.58-1.96,1.55-3.18.35-3.76Z"/><path d="m695.22,117.53c-.92-2.49-2.66-3.82-4.65-4.93-.37-.22-.72-.39-1.01-.53-.59-.31-1.2-.6-1.8-.92-6.19-3.28-11.03-7.42-14.38-12.33-.95-1.38-1.78-2.85-2.47-4.38-.29-.82-.27-1.28-.07-1.71.2-.33.47-.61.79-.82,1.06-.7,2.16-1.42,2.91-1.9,1.33-.86,2.38-1.54,3.05-2.02,2.54-1.78,4.32-3.67,5.43-5.78,1.57-2.95,1.78-6.44.57-9.55-1.68-4.43-5.87-7.18-10.94-7.18-1.07,0-2.14.11-3.18.34-.28.06-.56.12-.83.2.05-3.03-.02-6.23-.29-9.38-.96-11.07-4.83-16.87-8.87-21.49-2.59-2.9-5.63-5.35-9.02-7.26-6.13-3.5-13.08-5.28-20.66-5.28s-14.5,1.78-20.63,5.28c-3.39,1.91-6.45,4.37-9.04,7.27-4.04,4.63-7.91,10.44-8.87,21.49-.27,3.15-.34,6.36-.29,9.38-.27-.07-.55-.13-.83-.2-1.05-.22-2.11-.34-3.18-.34-5.07,0-9.26,2.75-10.94,7.18-1.21,3.12-1.01,6.61.56,9.56,1.11,2.11,2.89,4,5.43,5.78.67.47,1.73,1.15,3.05,2.02.72.46,1.76,1.14,2.79,1.82.36.23.66.54.9.9.22.44.22.92-.1,1.79-.68,1.5-1.49,2.93-2.43,4.29-3.28,4.8-7.97,8.86-13.96,12.12-3.17,1.68-6.47,2.81-7.87,6.6-1.05,2.86-.36,6.11,2.31,8.85h0c.98,1.02,2.12,1.88,3.37,2.55,2.6,1.43,5.37,2.54,8.24,3.3.59.15,1.15.4,1.66.74.97.85.83,2.13,2.13,4.01.65.97,1.48,1.81,2.44,2.48,2.72,1.88,5.78,2,9.02,2.12,2.93.11,6.24.24,10.03,1.49,1.57.52,3.2,1.52,5.09,2.69,4.53,2.79,10.74,6.6,21.13,6.6s16.64-3.83,21.21-6.63c1.88-1.15,3.49-2.14,5.02-2.65,3.79-1.25,7.1-1.38,10.03-1.49,3.24-.12,6.3-.24,9.02-2.12,1.14-.79,2.08-1.83,2.77-3.03.93-1.59.91-2.69,1.78-3.47.48-.32,1.01-.56,1.56-.71,2.91-.76,5.71-1.88,8.35-3.33,1.33-.71,2.52-1.65,3.53-2.77l.03-.04c2.5-2.68,3.13-5.84,2.11-8.63Zm-9.23,4.96c-5.63,3.11-9.38,2.78-12.29,4.65-2.47,1.59-1.01,5.03-2.81,6.27-2.21,1.53-8.74-.11-17.17,2.68-6.96,2.3-11.39,8.91-23.9,8.91s-16.84-6.6-23.91-8.93c-8.42-2.78-14.96-1.15-17.17-2.68-1.79-1.24-.34-4.67-2.81-6.27-2.92-1.88-6.66-1.54-12.29-4.64-3.59-1.98-1.55-3.21-.36-3.78,20.4-9.88,23.66-25.13,23.8-26.26.18-1.37.37-2.45-1.14-3.84-1.46-1.35-7.92-5.35-9.72-6.6-2.97-2.07-4.28-4.14-3.31-6.69.67-1.76,2.32-2.42,4.04-2.42.54,0,1.09.06,1.62.18,3.26.71,6.42,2.34,8.25,2.78.22.06.45.09.67.09.98,0,1.32-.49,1.25-1.61-.21-3.57-.71-10.51-.15-17.01.77-8.93,3.65-13.36,7.07-17.28,1.64-1.88,9.36-10.04,24.13-10.04s22.5,8.12,24.15,10c3.42,3.92,6.31,8.34,7.07,17.28.56,6.49.08,13.45-.15,17.01-.08,1.17.28,1.61,1.25,1.61.23,0,.45-.03.67-.09,1.83-.44,5-2.07,8.25-2.78.53-.12,1.07-.18,1.62-.18,1.73,0,3.37.67,4.04,2.42.96,2.55-.34,4.62-3.31,6.69-1.79,1.25-8.26,5.25-9.72,6.6-1.51,1.39-1.31,2.47-1.14,3.84.14,1.15,3.4,16.4,23.8,26.26,1.21.6,3.24,1.83-.35,3.82Z"/></g></svg>